<svg xmlns="http://www.w3.org/2000/svg" width="17" height="25.356" viewBox="0 0 17 25.356">
  <g id="Group_169" data-name="Group 169" transform="translate(-212.549 -221.195)">
    <path id="Path_16" data-name="Path 16" d="M228.767,232.693l-2.055,1.4-.971,2.291-2.487.069-2.055,1.4-2.129-1.287-2.487.069-1.1-2.234-2.129-1.287.286-2.471-1.1-2.234,1.577-1.925.286-2.471,2.367-.767,1.577-1.925,2.406.635,2.367-.767,1.681,1.835,2.406.635.422,2.452,1.681,1.835-.971,2.291Z" transform="translate(0 0)" fill="#e8b735"/>
    <path id="Path_17" data-name="Path 17" d="M279.612,317.622l5.262,11.869-3.73-2.837-.4,4.669-5.262-11.869Z" transform="translate(-55.325 -84.773)" fill="#e8b735"/>
    <path id="Path_18" data-name="Path 18" d="M218.164,317.622,212.9,329.492l3.73-2.837.4,4.669,5.262-11.869Z" transform="translate(-0.311 -84.773)" fill="#e8b735"/>
  </g>
</svg>
