<?xml version="1.0" standalone="no"?><!-- Generator: Gravit.io --><svg xmlns="http://www.w3.org/2000/svg" xmlns:xlink="http://www.w3.org/1999/xlink" style="isolation:isolate" viewBox="0 0 180 36.896" width="180" height="36.896"><g><path d=" M 105.269 7.97 L 106.343 7.97 L 106.343 1.433 L 105.269 1.433 L 105.269 0.761 L 110.731 0.761 L 110.731 2.463 L 110.06 2.463 L 110.06 1.433 L 107.597 1.433 L 107.597 4.343 L 109.522 4.343 L 109.522 3.403 L 110.194 3.403 L 110.194 6.134 L 109.522 6.134 L 109.522 5.015 L 107.597 5.015 L 107.597 7.97 L 108.672 7.97 L 108.672 8.642 L 105.224 8.642 L 105.224 7.97 L 105.269 7.97 Z  M 111.224 3.134 L 113.418 3.134 L 113.418 6.896 C 113.418 7.612 113.821 8.015 114.403 8.015 C 114.761 8.015 115.254 7.836 115.746 7.433 L 115.746 3.672 L 114.761 3.672 L 114.761 3.134 L 116.955 3.134 L 116.955 8.06 L 117.94 8.06 L 117.94 8.597 L 115.746 8.597 L 115.746 7.925 C 115.075 8.507 114.403 8.731 113.776 8.731 C 112.791 8.731 112.209 8.194 112.209 7.075 L 112.209 3.672 L 111.224 3.672 L 111.224 3.134 Z  M 118.388 8.06 L 119.373 8.06 L 119.373 3.672 L 118.388 3.672 L 118.388 3.134 L 120.582 3.134 L 120.582 3.761 C 121.209 3.313 121.881 3 122.597 3 C 123.448 3 124.119 3.537 124.119 4.612 L 124.119 8.06 L 125.104 8.06 L 125.104 8.597 L 122.06 8.597 L 122.06 8.06 L 122.91 8.06 L 122.91 4.836 C 122.91 4.075 122.507 3.716 121.925 3.716 C 121.522 3.716 121.03 3.94 120.582 4.299 L 120.582 8.06 L 121.478 8.06 L 121.478 8.597 L 118.388 8.597 L 118.388 8.06 L 118.388 8.06 Z  M 129.716 8.06 L 129.179 8.06 C 127.881 8.06 126.94 7.433 126.94 5.776 C 126.94 4.433 127.478 3.672 128.418 3.672 C 128.821 3.672 129.313 3.896 129.716 4.299 L 129.716 8.06 Z  M 128.776 0.537 L 129.761 0.537 L 129.761 3.672 C 129.224 3.224 128.642 2.955 128.104 2.955 C 126.761 2.955 125.687 4.209 125.687 5.776 C 125.687 7.522 126.896 8.597 128.821 8.597 L 131.955 8.597 L 131.955 8.06 L 130.97 8.06 L 130.97 0 L 128.776 0 L 128.776 0.537 L 128.776 0.537 Z  M 135.224 6.045 L 135.224 7.522 C 134.866 7.791 134.597 7.925 134.328 7.925 C 133.925 7.925 133.612 7.612 133.612 7.209 C 133.612 6.627 134.06 6.313 135.224 6.045 Z  M 132.716 4.254 C 133.388 3.851 133.836 3.672 134.284 3.672 C 135 3.672 135.224 4.119 135.224 4.746 L 135.224 5.463 L 134.015 5.776 C 132.94 6.045 132.493 6.493 132.493 7.299 C 132.493 8.104 133.03 8.731 133.746 8.731 C 134.239 8.731 134.687 8.418 135.358 7.925 C 135.627 8.507 135.94 8.731 136.343 8.731 C 136.701 8.731 137.149 8.552 137.552 8.284 L 137.552 7.925 C 137.418 7.97 137.104 8.015 136.97 8.015 C 136.657 8.015 136.388 7.657 136.388 7.119 L 136.388 4.881 C 136.388 3.672 135.716 2.955 134.687 2.955 C 134.015 2.955 133.254 3.269 132.582 3.851 L 132.716 4.254 Z  M 140.104 8.687 C 138.896 8.418 138.045 7.254 138.045 5.731 C 138.045 4.119 139.119 2.955 140.642 2.955 C 141.09 2.955 141.448 3.045 142.075 3.313 L 142.164 3 L 142.522 3 L 142.522 4.701 L 142.164 4.701 C 142.03 3.896 141.448 3.493 140.821 3.493 C 139.925 3.493 139.343 4.119 139.343 5.552 C 139.343 7.164 139.97 8.015 141.09 8.015 C 141.985 8.015 142.522 7.433 142.657 7.433 C 142.746 7.433 142.836 7.657 142.836 7.746 C 142.836 7.97 141.985 8.731 140.597 8.731 L 140.418 9.09 C 140.91 9.134 141.313 9.537 141.313 10.075 C 141.313 10.657 140.731 11.507 139.03 11.373 L 139.03 10.881 C 139.881 10.881 140.328 10.701 140.328 10.299 C 140.328 10.03 140.104 9.851 139.567 9.806 L 140.104 8.687 Z  M 146.239 6.045 L 146.239 7.522 C 145.881 7.791 145.612 7.925 145.343 7.925 C 144.94 7.925 144.627 7.612 144.627 7.209 C 144.627 6.627 145.119 6.313 146.239 6.045 Z  M 143.776 4.254 C 144.448 3.851 144.896 3.672 145.343 3.672 C 146.06 3.672 146.284 4.119 146.284 4.746 L 146.284 5.463 L 145.075 5.776 C 144 6.045 143.552 6.493 143.552 7.299 C 143.552 8.104 144.09 8.731 144.806 8.731 C 145.299 8.731 145.746 8.418 146.418 7.925 C 146.687 8.507 147 8.731 147.403 8.731 C 147.761 8.731 148.209 8.552 148.612 8.284 L 148.612 7.925 C 148.478 7.97 148.164 8.015 148.03 8.015 C 147.716 8.015 147.448 7.657 147.448 7.119 L 147.448 4.881 C 147.448 3.672 146.776 2.955 145.746 2.955 C 145.075 2.955 144.313 3.269 143.642 3.851 L 143.776 4.254 Z  M 144.313 1.791 C 144.358 1.522 144.582 1.299 144.806 1.299 C 145.209 1.299 145.836 1.791 146.463 1.791 C 147.09 1.791 147.493 1.299 147.672 0.313 L 147.224 0.313 C 147.134 0.672 146.955 0.806 146.687 0.806 C 146.284 0.806 145.746 0.313 145.119 0.313 C 144.493 0.313 143.955 0.985 143.955 1.791 L 144.313 1.791 Z  M 150.448 5.866 C 150.448 4.388 151.075 3.493 152.104 3.493 C 153.134 3.493 153.761 4.388 153.761 5.866 C 153.761 7.343 153.134 8.239 152.104 8.239 C 151.075 8.239 150.448 7.343 150.448 5.866 Z  M 149.104 5.866 C 149.104 7.478 150.403 8.776 152.104 8.776 C 153.806 8.776 155.104 7.522 155.104 5.866 C 155.104 4.254 153.806 2.955 152.104 2.955 C 150.403 3 149.104 4.254 149.104 5.866 Z  M 107.463 16.567 C 107.91 16.03 108.224 15.851 108.672 15.851 C 109.612 15.851 110.194 16.836 110.194 18.358 C 110.194 19.567 109.701 20.507 108.761 20.507 C 108.269 20.507 107.776 20.194 107.463 19.701 L 107.463 16.567 Z  M 105.269 24.09 L 108.403 24.09 L 108.403 23.552 L 107.463 23.552 L 107.463 20.597 C 107.866 20.91 108.358 21.045 108.896 21.045 C 110.91 21.045 111.537 19.388 111.537 18.045 C 111.537 16.03 110.194 15.269 109.075 15.269 C 108.761 15.269 108.493 15.313 108.224 15.448 C 107.955 15.537 107.731 15.716 107.463 15.985 L 107.463 15.448 L 105.269 15.448 L 105.269 15.985 L 106.254 15.985 L 106.254 23.597 L 105.269 23.597 L 105.269 24.09 Z  M 115.075 18.313 L 115.075 19.791 C 114.716 20.06 114.448 20.194 114.179 20.194 C 113.776 20.194 113.463 19.881 113.463 19.478 C 113.507 18.94 113.955 18.582 115.075 18.313 Z  M 112.612 16.567 C 113.284 16.164 113.731 15.985 114.179 15.985 C 114.896 15.985 115.119 16.433 115.119 17.06 L 115.119 17.776 L 113.91 18.09 C 112.836 18.358 112.388 18.806 112.388 19.612 C 112.388 20.418 112.925 21.045 113.642 21.045 C 114.134 21.045 114.582 20.731 115.254 20.239 C 115.522 20.821 115.836 21.045 116.239 21.045 C 116.597 21.045 117.045 20.866 117.448 20.597 L 117.448 20.239 C 117.313 20.284 117 20.328 116.866 20.328 C 116.552 20.328 116.284 19.97 116.284 19.433 L 116.284 17.194 C 116.284 15.985 115.612 15.269 114.582 15.269 C 113.91 15.269 113.149 15.582 112.478 16.164 L 112.612 16.567 Z  M 117.806 20.373 L 118.791 20.373 L 118.791 15.985 L 117.806 15.985 L 117.806 15.448 L 120 15.448 L 120 16.388 L 120.045 16.388 C 120.716 15.582 121.03 15.313 121.388 15.313 C 121.701 15.313 122.015 15.493 122.328 15.851 C 122.239 16.388 122.06 16.836 121.836 17.194 C 121.522 16.612 121.343 16.433 120.985 16.433 C 120.627 16.433 120.358 16.657 120.045 17.104 L 120.045 20.463 L 121.03 20.463 L 121.03 21 L 117.851 21 L 117.851 20.373 L 117.806 20.373 Z  M 125.597 18.313 L 125.597 19.791 C 125.239 20.06 124.97 20.194 124.701 20.194 C 124.299 20.194 123.985 19.881 123.985 19.478 C 123.985 18.94 124.433 18.582 125.597 18.313 Z  M 123.134 16.567 C 123.806 16.164 124.254 15.985 124.701 15.985 C 125.418 15.985 125.642 16.433 125.642 17.06 L 125.642 17.776 L 124.433 18.09 C 123.358 18.358 122.91 18.806 122.91 19.612 C 122.91 20.418 123.448 21.045 124.164 21.045 C 124.657 21.045 125.104 20.731 125.776 20.239 C 126.045 20.821 126.358 21.045 126.761 21.045 C 127.119 21.045 127.567 20.866 127.97 20.597 L 127.97 20.239 C 127.836 20.284 127.522 20.328 127.388 20.328 C 127.075 20.328 126.806 19.97 126.806 19.433 L 126.806 17.194 C 126.806 15.985 126.134 15.269 125.104 15.269 C 124.433 15.269 123.672 15.582 123 16.164 L 123.134 16.567 Z  M 134.91 18.313 L 134.91 19.791 C 134.552 20.06 134.284 20.194 134.015 20.194 C 133.612 20.194 133.299 19.881 133.299 19.478 C 133.299 18.94 133.746 18.582 134.91 18.313 Z  M 132.448 16.567 C 133.119 16.164 133.567 15.985 134.015 15.985 C 134.731 15.985 134.955 16.433 134.955 17.06 L 134.955 17.776 L 133.746 18.09 C 132.672 18.358 132.224 18.806 132.224 19.612 C 132.224 20.418 132.761 21.045 133.478 21.045 C 133.97 21.045 134.418 20.731 135.09 20.239 C 135.358 20.821 135.672 21.045 136.075 21.045 C 136.433 21.045 136.881 20.866 137.284 20.597 L 137.284 20.239 C 137.149 20.284 136.836 20.328 136.701 20.328 C 136.388 20.328 136.119 19.97 136.119 19.433 L 136.119 17.194 C 136.119 15.985 135.448 15.269 134.418 15.269 C 133.746 15.269 132.985 15.582 132.313 16.164 L 132.448 16.567 Z  M 148.343 20.104 C 147.582 20.731 146.597 21.045 145.478 21.045 C 143.149 21.045 141.493 19.254 141.493 17.06 C 141.493 14.687 143.194 12.896 145.567 12.896 C 146.239 12.896 146.866 13.03 147.448 13.254 L 147.537 12.806 L 148.03 12.806 L 148.03 15.09 L 147.448 15.09 C 147.224 14.104 146.507 13.567 145.522 13.567 C 144 13.567 143.015 14.866 143.015 16.881 C 143.015 18.985 144.134 20.373 145.881 20.373 C 146.642 20.373 147.448 20.104 148.343 19.433 L 148.343 20.104 Z  M 149.015 20.373 L 149.955 20.373 L 149.955 15.985 L 149.015 15.985 L 149.015 15.448 L 151.164 15.448 L 151.164 20.373 L 152.104 20.373 L 152.104 20.91 L 149.015 20.91 L 149.015 20.373 L 149.015 20.373 Z  M 151.164 13.478 C 151.164 13.881 150.806 14.239 150.403 14.239 C 150 14.239 149.642 13.881 149.642 13.478 C 149.642 13.075 150 12.716 150.403 12.716 C 150.851 12.761 151.164 13.075 151.164 13.478 Z  M 154.164 17.194 C 154.254 16.254 154.522 15.806 155.284 15.806 C 155.955 15.806 156.403 16.299 156.493 17.194 L 154.164 17.194 Z  M 157.791 17.731 C 157.567 16.164 156.716 15.269 155.373 15.269 C 153.851 15.269 152.866 16.343 152.866 18 C 152.866 19.522 153.896 21.045 155.731 21.045 C 156.493 21.045 156.896 20.91 157.791 20.328 L 157.881 19.746 C 157.209 20.149 156.627 20.373 156.045 20.373 C 154.881 20.373 154.164 19.299 154.164 17.731 L 157.791 17.731 Z  M 153.896 14.418 L 155.284 13.388 L 156.672 14.418 L 157.164 14.418 L 155.642 12.313 L 154.925 12.313 L 153.403 14.418 L 153.896 14.418 Z  M 158.373 20.373 L 159.358 20.373 L 159.358 15.985 L 158.373 15.985 L 158.373 15.448 L 160.567 15.448 L 160.567 16.075 C 161.194 15.627 161.866 15.313 162.582 15.313 C 163.433 15.313 164.104 15.851 164.104 16.925 L 164.104 20.418 L 165.09 20.418 L 165.09 20.955 L 162.045 20.955 L 162.045 20.418 L 162.896 20.418 L 162.896 17.194 C 162.896 16.433 162.493 16.075 161.91 16.075 C 161.507 16.075 161.015 16.299 160.567 16.657 L 160.567 20.463 L 161.463 20.463 L 161.463 21 L 158.373 21 L 158.373 20.373 L 158.373 20.373 Z  M 170.149 17.015 L 169.791 17.015 C 169.657 16.209 169.075 15.806 168.493 15.806 C 167.597 15.806 167.015 16.433 167.015 17.866 C 167.015 19.478 167.642 20.328 168.761 20.328 C 169.657 20.328 170.194 19.746 170.328 19.746 C 170.418 19.746 170.507 19.97 170.507 20.06 C 170.507 20.284 169.612 21.045 168.358 21.045 C 166.836 21.045 165.672 19.746 165.672 18.045 C 165.672 16.433 166.746 15.269 168.269 15.269 C 168.716 15.269 169.075 15.358 169.657 15.627 L 169.746 15.313 L 170.104 15.313 L 170.104 17.015 L 170.149 17.015 Z  M 171.09 20.373 L 172.03 20.373 L 172.03 15.985 L 171.09 15.985 L 171.09 15.448 L 173.239 15.448 L 173.239 20.373 L 174.179 20.373 L 174.179 20.91 L 171.09 20.91 L 171.09 20.373 L 171.09 20.373 Z  M 173.284 13.478 C 173.284 13.881 172.925 14.239 172.522 14.239 C 172.119 14.239 171.761 13.881 171.761 13.478 C 171.761 13.075 172.119 12.716 172.522 12.716 C 172.925 12.761 173.284 13.075 173.284 13.478 Z  M 177.627 18.313 L 177.627 19.791 C 177.269 20.06 177 20.194 176.731 20.194 C 176.328 20.194 176.015 19.881 176.015 19.478 C 176.015 18.94 176.507 18.582 177.627 18.313 Z  M 175.164 16.567 C 175.836 16.164 176.284 15.985 176.731 15.985 C 177.448 15.985 177.672 16.433 177.672 17.06 L 177.672 17.776 L 176.463 18.09 C 175.388 18.358 174.94 18.806 174.94 19.612 C 174.94 20.418 175.478 21.045 176.194 21.045 C 176.687 21.045 177.134 20.731 177.806 20.239 C 178.075 20.821 178.388 21.045 178.791 21.045 C 179.149 21.045 179.597 20.866 180 20.597 L 180 20.239 C 179.866 20.284 179.552 20.328 179.418 20.328 C 179.104 20.328 178.836 19.97 178.836 19.433 L 178.836 17.194 C 178.836 15.985 178.164 15.269 177.134 15.269 C 176.463 15.269 175.701 15.582 175.03 16.164 L 175.164 16.567 Z  M 106.612 29.91 C 106.701 28.97 106.97 28.522 107.731 28.522 C 108.403 28.522 108.851 29.015 108.94 29.91 L 106.612 29.91 Z  M 110.194 30.403 C 109.97 28.836 109.119 27.94 107.776 27.94 C 106.254 27.94 105.269 29.015 105.269 30.672 C 105.269 32.194 106.299 33.716 108.134 33.716 C 108.896 33.716 109.299 33.582 110.194 33 L 110.284 32.418 C 109.612 32.821 109.03 33.045 108.448 33.045 C 107.284 33.045 106.567 31.97 106.567 30.403 L 110.194 30.403 Z  M 117.448 31.03 L 117.448 32.507 C 117.09 32.776 116.821 32.91 116.552 32.91 C 116.149 32.91 115.836 32.597 115.836 32.194 C 115.836 31.612 116.284 31.299 117.448 31.03 Z  M 114.985 29.239 C 115.657 28.836 116.104 28.657 116.552 28.657 C 117.269 28.657 117.493 29.104 117.493 29.731 L 117.493 30.448 L 116.284 30.761 C 115.209 31.03 114.761 31.478 114.761 32.284 C 114.761 33.09 115.299 33.716 116.015 33.716 C 116.507 33.716 116.955 33.403 117.627 32.91 C 117.896 33.493 118.209 33.716 118.612 33.716 C 118.97 33.716 119.418 33.537 119.821 33.269 L 119.821 32.91 C 119.687 32.955 119.373 33 119.239 33 C 118.925 33 118.657 32.642 118.657 32.104 L 118.657 29.866 C 118.657 28.657 117.985 27.94 116.955 27.94 C 116.284 27.94 115.522 28.254 114.851 28.836 L 114.985 29.239 Z  M 124.119 32.91 L 125.194 32.91 L 125.194 26.642 L 123.179 26.642 L 123.179 27.716 L 122.507 27.716 L 122.507 25.343 L 123.179 25.343 L 123.179 25.746 L 128.507 25.746 L 128.507 25.343 L 129.179 25.343 L 129.179 27.716 L 128.507 27.716 L 128.507 26.642 L 126.493 26.642 L 126.493 32.91 L 127.567 32.91 L 127.567 33.582 L 124.119 33.582 L 124.119 32.91 Z  M 129.896 29.91 C 129.985 28.97 130.254 28.522 131.015 28.522 C 131.687 28.522 132.134 29.015 132.224 29.91 L 129.896 29.91 Z  M 133.478 30.403 C 133.254 28.836 132.403 27.94 131.06 27.94 C 129.537 27.94 128.552 29.015 128.552 30.672 C 128.552 32.194 129.582 33.716 131.418 33.716 C 132.179 33.716 132.582 33.582 133.478 33 L 133.567 32.418 C 132.896 32.821 132.313 33.045 131.731 33.045 C 130.567 33.045 129.851 31.97 129.851 30.403 L 133.478 30.403 Z  M 138.806 29.687 L 138.448 29.687 C 138.313 28.881 137.731 28.478 137.149 28.478 C 136.254 28.478 135.672 29.104 135.672 30.537 C 135.672 32.149 136.299 33 137.418 33 C 138.313 33 138.851 32.418 138.985 32.418 C 139.075 32.418 139.164 32.642 139.164 32.731 C 139.164 32.955 138.269 33.716 137.015 33.716 C 135.493 33.716 134.328 32.418 134.328 30.716 C 134.328 29.104 135.403 27.94 136.925 27.94 C 137.373 27.94 137.731 28.03 138.313 28.299 L 138.403 27.985 L 138.761 27.985 L 138.761 29.687 L 138.806 29.687 Z  M 139.522 33.045 L 140.507 33.045 L 140.507 28.657 L 139.522 28.657 L 139.522 28.119 L 141.716 28.119 L 141.716 28.746 C 142.343 28.299 143.015 27.985 143.731 27.985 C 144.582 27.985 145.254 28.522 145.254 29.597 L 145.254 33.09 L 146.239 33.09 L 146.239 33.582 L 143.194 33.582 L 143.194 33.045 L 144.045 33.045 L 144.045 29.821 C 144.045 29.06 143.642 28.701 143.06 28.701 C 142.657 28.701 142.164 28.925 141.716 29.284 L 141.716 33.09 L 142.612 33.09 L 142.612 33.582 L 139.522 33.582 L 139.522 33.045 L 139.522 33.045 Z  M 148.164 30.851 C 148.164 29.373 148.791 28.478 149.821 28.478 C 150.851 28.478 151.478 29.373 151.478 30.851 C 151.478 32.328 150.851 33.224 149.821 33.224 C 148.791 33.224 148.164 32.328 148.164 30.851 Z  M 146.821 30.851 C 146.821 32.463 148.119 33.761 149.821 33.761 C 151.522 33.761 152.821 32.507 152.821 30.851 C 152.821 29.239 151.522 27.94 149.821 27.94 C 148.119 27.94 146.821 29.239 146.821 30.851 Z  M 153.537 33.045 L 154.522 33.045 L 154.522 25.522 L 153.537 25.522 L 153.537 24.985 L 155.731 24.985 L 155.731 33.045 L 156.672 33.045 L 156.672 33.582 L 153.582 33.582 L 153.582 33.045 L 153.537 33.045 Z  M 158.642 30.851 C 158.642 29.373 159.269 28.478 160.299 28.478 C 161.328 28.478 161.955 29.373 161.955 30.851 C 161.955 32.328 161.328 33.224 160.299 33.224 C 159.269 33.224 158.642 32.328 158.642 30.851 Z  M 157.299 30.851 C 157.299 32.463 158.597 33.761 160.299 33.761 C 162 33.761 163.299 32.507 163.299 30.851 C 163.299 29.239 162 27.94 160.299 27.94 C 158.642 27.94 157.299 29.239 157.299 30.851 Z  M 165.448 30.045 C 165.448 29.06 165.896 28.478 166.657 28.478 C 167.373 28.478 167.821 29.104 167.821 30.134 C 167.821 31.119 167.373 31.746 166.657 31.746 C 165.896 31.701 165.448 31.075 165.448 30.045 Z  M 169.478 28.119 L 167.776 28.119 C 167.597 28.119 167.463 28.075 167.284 28.03 C 167.104 27.985 166.881 27.94 166.522 27.94 C 165.179 27.94 164.194 28.791 164.194 30.045 C 164.194 31.075 164.821 31.791 165.985 32.104 L 165.985 32.149 L 165.806 32.194 C 165.179 32.373 164.866 32.687 164.866 33.045 C 164.866 33.358 165.09 33.672 165.537 33.985 C 164.463 34.343 163.925 34.836 163.925 35.373 C 163.925 36.045 164.91 36.896 166.612 36.896 C 168.269 36.896 169.343 36.179 169.343 35.104 C 169.343 34.746 169.254 34.522 168.985 34.209 C 168.134 33.358 165.985 33.403 165.985 32.731 C 165.985 32.642 166.03 32.642 166.075 32.552 C 166.478 32.149 167.463 32.463 168.448 31.478 C 168.806 31.119 169.03 30.537 169.03 30.045 C 169.03 29.552 168.851 29.104 168.493 28.701 L 169.478 28.701 L 169.478 28.119 Z  M 166.03 34.164 C 167.776 34.657 168.403 34.925 168.403 35.418 C 168.403 35.642 168.224 35.866 167.955 35.955 C 167.687 36.045 167.149 36.134 166.701 36.134 C 165.761 36.134 165.134 35.776 165.134 35.239 C 165.134 34.836 165.358 34.567 166.03 34.164 Z  M 169.97 33.045 L 170.91 33.045 L 170.91 28.657 L 169.97 28.657 L 169.97 28.119 L 172.119 28.119 L 172.119 33.045 L 173.06 33.045 L 173.06 33.582 L 169.97 33.582 L 169.97 33.045 L 169.97 33.045 Z  M 172.164 26.194 C 172.164 26.597 171.806 26.955 171.403 26.955 C 171 26.955 170.642 26.597 170.642 26.194 C 170.642 25.791 171 25.433 171.403 25.433 C 171.806 25.433 172.164 25.746 172.164 26.194 Z  M 176.552 31.03 L 176.552 32.507 C 176.194 32.776 175.925 32.91 175.657 32.91 C 175.254 32.91 174.94 32.597 174.94 32.194 C 174.94 31.612 175.388 31.299 176.552 31.03 Z  M 174.045 29.239 C 174.716 28.836 175.164 28.657 175.612 28.657 C 176.328 28.657 176.552 29.104 176.552 29.731 L 176.552 30.448 L 175.343 30.761 C 174.269 31.03 173.821 31.478 173.821 32.284 C 173.821 33.09 174.358 33.716 175.075 33.716 C 175.567 33.716 176.015 33.403 176.687 32.91 C 176.955 33.493 177.269 33.716 177.672 33.716 C 178.03 33.716 178.478 33.537 178.881 33.269 L 178.881 32.91 C 178.746 32.955 178.433 33 178.299 33 C 177.985 33 177.716 32.642 177.716 32.104 L 177.716 29.866 C 177.716 28.657 177.045 27.94 176.015 27.94 C 175.343 27.94 174.582 28.254 173.91 28.836 L 174.045 29.239 Z " fill-rule="evenodd" fill="rgb(255,255,255)"/><path d=" M 23.373 0.94 L 23.373 7.478 L 9.851 7.478 L 9.851 13.836 L 23.373 13.836 L 23.373 20.373 L 9.851 20.373 L 9.851 33.582 L 0 33.582 L 0 0.94 L 23.373 0.94 Z  M 59.149 31.119 C 54.851 33.313 50.597 34.03 46.299 34.03 C 34.791 34.03 27.851 27.224 27.851 17.239 C 27.851 5.687 36.582 0.448 46.433 0.448 C 51.94 0.448 56.418 1.97 59.015 2.91 L 59.015 11.597 C 57.179 10.478 53.507 8.06 48.672 8.06 C 43.075 8.06 37.881 11.597 37.881 17.328 C 37.836 22.343 42.09 26.418 48.09 26.418 C 53.328 26.418 57.179 24.09 59.104 22.881 L 59.104 31.119 L 59.149 31.119 Z  M 97.03 0.94 L 97.03 8.866 L 85.075 8.866 L 85.075 33.537 L 75.224 33.537 L 75.224 8.866 L 63.269 8.866 L 63.269 0.94 L 97.03 0.94 Z " fill-rule="evenodd" fill="rgb(255,255,255)"/></g></svg>