<?xml version="1.0" encoding="UTF-8" standalone="no"?>
<svg
   width="246"
   height="25"
   viewBox="0 0 246 25"
   version="1.1"
   xml:space="preserve"
   style="clip-rule:evenodd;fill-rule:evenodd;stroke-linejoin:round;stroke-miterlimit:2"
   id="svg55"
   xmlns="http://www.w3.org/2000/svg"
   xmlns:svg="http://www.w3.org/2000/svg"><defs
     id="defs59" /><rect
     id="Artboard1"
     x="0"
     y="0"
     width="208.662"
     height="24.712999"
     style="fill:none" /><g
     id="g45"><g
       id="g43"><g
         id="g41"><g
           id="g39"><path
             d="M 85.553,6.653 86.64,6.652 c 0.06,1.058 0.81,1.71 2.153,1.71 1.357,0 2.092,-0.487 2.092,-1.492 0,-0.833 -0.6,-1.193 -1.522,-1.388 L 88.118,5.212 C 86.64,4.897 85.845,4.215 85.845,2.902 c 0,-1.44 1.073,-2.347 2.97,-2.347 1.83,0 3.03,1.027 3.045,2.542 h -1.095 c -0.052,-0.93 -0.66,-1.56 -1.98,-1.56 -1.102,0 -1.83,0.405 -1.83,1.365 0,0.698 0.555,1.073 1.455,1.268 l 1.155,0.247 c 1.59,0.33 2.43,1.148 2.43,2.46 0,1.523 -1.222,2.46 -3.195,2.46 C 86.715,9.33 85.605,8.265 85.552,6.652 Z"
             style="fill:#231f20;fill-rule:nonzero"
             id="path3" /><path
             d="M 94.373,0.668 99.87,0.667 V 1.65 h -4.44 v 2.677 h 4.058 V 5.31 H 95.43 v 2.963 h 4.44 V 9.24 h -5.498 l 0.001,-8.573 z"
             style="fill:#231f20;fill-rule:nonzero"
             id="path5" /><path
             d="m 102.308,0.668 1.267,-0.001 2.887,5.213 h 0.053 l 2.887,-5.213 h 1.23 v 8.558 h -1.02 V 2.362 l -0.052,10e-4 -3.03,5.392 h -0.128 l -3.03,-5.43 h -0.052 v 6.9 h -1.012 z"
             style="fill:#231f20;fill-rule:nonzero"
             id="path7" /><path
             d="m 113.558,0.668 3.149,-0.001 c 1.748,0 2.828,1.111 2.828,2.701 0,1.634 -1.095,2.752 -2.828,2.752 h -2.092 v 3.105 h -1.058 l 0.001,-8.558 z m 3.022,4.47 c 1.185,0 1.86,-0.622 1.86,-1.77 0,-1.095 -0.713,-1.732 -1.86,-1.732 h -1.958 v 3.502 z"
             style="fill:#231f20;fill-rule:nonzero"
             id="path9" /><path
             d="m 128.528,9.09 v 0.12 h -1.155 l -2.25,-3.382 h -2.078 V 9.21 h -1.057 V 0.668 h 3.382 c 1.748,0 2.715,1.11 2.715,2.565 0,1.267 -0.735,2.152 -1.845,2.467 z m -5.49,-4.23 h 2.265 c 1.072,0 1.657,-0.592 1.657,-1.612 0,-0.998 -0.592,-1.598 -1.657,-1.598 h -2.265 z"
             style="fill:#231f20;fill-rule:nonzero"
             id="path11" /><path
             d="m 130.65,0.668 5.498,-0.001 V 1.65 h -4.433 v 2.677 h 4.058 V 5.31 h -4.058 v 2.963 h 4.433 V 9.24 H 130.65 V 0.667 Z"
             style="fill:#231f20;fill-rule:nonzero"
             id="path13" /><path
             d="m 92.91,23.498 v 0.119 h -1.133 l -0.809,-2.235 h -3.736 l -0.817,2.235 h -1.11 v -0.12 l 3.135,-8.43 h 1.305 l 3.165,8.43 z m -2.288,-3.067 -1.5,-4.178 H 89.07 l -1.5,4.178 z"
             style="fill:#231f20;fill-rule:nonzero"
             id="path15" /><path
             d="m 105.885,23.498 v 0.119 h -1.132 l -0.811,-2.235 h -3.734 l -0.81,2.235 h -1.11 v -0.12 l 3.135,-8.43 h 1.305 l 3.157,8.43 z m -2.288,-3.067 -1.5,-4.178 h -0.052 l -1.5,4.178 z"
             style="fill:#231f20;fill-rule:nonzero"
             id="path17" /><path
             d="m 107.962,15.067 h 3.158 c 1.748,0 2.828,1.111 2.828,2.701 -10e-4,1.634 -1.103,2.752 -2.828,2.752 h -2.093 l 0.001,3.098 h -1.066 l 10e-4,-8.551 z m 3.014,4.471 c 1.186,0 1.86,-0.623 1.86,-1.77 0,-1.095 -0.712,-1.733 -1.86,-1.733 h -1.957 v 3.503 z"
             style="fill:#231f20;fill-rule:nonzero"
             id="path19" /><path
             d="m 122.925,23.498 v 0.119 h -1.155 l -2.25,-3.382 h -2.078 l 0.001,3.382 h -1.058 v -8.55 h 3.383 c 1.747,0 2.715,1.111 2.715,2.566 0,1.267 -0.735,2.152 -1.846,2.467 z m -5.482,-4.245 h 2.265 c 1.072,0 1.657,-0.593 1.657,-1.613 0,-1.005 -0.592,-1.597 -1.657,-1.597 h -2.265 z"
             style="fill:#231f20;fill-rule:nonzero"
             id="path21" /><path
             d="m 125.047,15.067 h 5.498 v 0.983 h -4.432 v 2.677 h 4.057 v 0.983 h -4.057 v 2.955 h 4.432 v 0.968 h -5.498 l 0.001,-8.566 z"
             style="fill:#231f20;fill-rule:nonzero"
             id="path23" /><path
             d="m 132.99,15.067 h 1.162 l 4.373,6.811 h 0.053 v -6.81 h 1.049 v 8.557 h -1.169 l -4.373,-6.772 h -0.053 v 6.772 h -1.042 z"
             style="fill:#231f20;fill-rule:nonzero"
             id="path25" /><path
             d="m 142.56,15.067 h 2.835 c 2.438,0 3.81,1.71 3.81,4.276 0,2.384 -1.252,4.275 -3.81,4.275 l -2.835,-10e-4 z m 2.722,7.59 c 1.965,0 2.828,-1.522 2.828,-3.307 0,-1.77 -0.847,-3.3 -2.828,-3.3 h -1.657 v 6.615 h 1.657 z"
             style="fill:#231f20;fill-rule:nonzero"
             id="path27" /><path
             d="m 151.65,15.067 h 5.498 v 0.983 h -4.44 v 2.677 h 4.057 v 0.983 h -4.057 v 2.955 h 4.44 v 0.968 h -5.498 z"
             style="fill:#231f20;fill-rule:nonzero"
             id="path29" /><path
             d="m 166.14,23.498 v 0.119 h -1.155 l -2.25,-3.382 h -2.078 v 3.382 H 159.6 v -8.55 h 3.382 c 1.748,0 2.715,1.111 2.715,2.566 0,1.267 -0.735,2.152 -1.845,2.467 z m -5.483,-4.245 h 2.265 c 1.073,0 1.658,-0.593 1.658,-1.613 0,-1.005 -0.593,-1.597 -1.657,-1.597 h -2.266 z"
             style="fill:#231f20;fill-rule:nonzero"
             id="path31" /><path
             d="m 55.815,18.48 c 0,3.427 2.767,6.21 6.203,6.21 h 0.067 c 2.355,0 4.718,-1.035 6.473,-2.505 l -0.001,1.95 h 9.301 l -0.001,-1.492 h -0.352 c -0.952,0 -1.725,-0.773 -1.725,-1.726 V 3.772 c 0,-0.952 0.773,-1.725 1.725,-1.725 h 0.353 v -1.5 H 68.55 V 17.55 c 0,2.512 -5.475,3.84 -5.475,-0.233 V 6.27 c 0,-3.45 -2.797,-6.248 -6.247,-6.248 L 52.905,0.023 V 1.5 c 1.433,0.308 2.925,2.318 2.925,5.063 z"
             style="fill:#0857ff;fill-rule:nonzero"
             id="path33" /><path
             d="m 22.043,6.233 c 0,-3.428 -2.768,-6.211 -6.203,-6.211 l -0.067,0.001 c -2.355,0 -4.718,1.035 -6.473,2.505 V 0.547 L 0,0.548 v 1.499 h 0.353 c 0.96,0 1.724,0.773 1.724,1.725 v 17.145 c 0,0.96 -0.772,1.726 -1.725,1.726 H 0 v 1.499 H 9.3 V 7.163 c 0,-2.513 5.475,-3.84 5.475,0.232 V 18.45 c 0,3.45 2.805,6.247 6.247,6.247 h 3.923 V 23.22 C 23.512,22.913 22.02,20.903 22.02,18.165 Z"
             style="fill:#0857ff;fill-rule:nonzero"
             id="path35" /><path
             d="M 50.085,18.083 V 8.182 C 50.085,4.74 47.903,1.612 44.617,0.577 43.44,0.202 42.18,0 40.875,0 c -2.745,0 -5.273,0.9 -7.32,2.415 0.015,0.022 0.015,0.022 0,0 C 32.385,0.937 30.592,0 28.575,0 H 24.57 v 1.5 c 1.455,0.315 2.97,2.355 2.97,5.13 v 9.9 c 0,3.45 2.182,6.57 5.467,7.605 1.185,0.375 2.438,0.578 3.735,0.578 2.745,0 5.28,-0.9 7.328,-2.415 1.162,1.462 2.955,2.415 4.972,2.415 h 4.005 v -1.5 C 51.6,22.905 50.085,20.865 50.085,18.082 Z m -6.878,2.775 c -0.525,0.136 -1.072,0.21 -1.642,0.21 -3.66,0 -6.638,-2.377 -6.638,-6.037 V 6.346 c 0,-0.885 -0.18,-1.718 -0.51,-2.49 0.525,-0.135 1.08,-0.21 1.643,-0.21 3.66,0 6.637,2.378 6.637,6.038 v 8.685 c 0,0.884 0.188,1.732 0.518,2.497 0,0 0,-0.008 -0.008,-0.008 z"
             style="fill:#0857ff;fill-rule:nonzero"
             id="path37" /></g></g></g></g><clipPath
     id="_clip1"><rect
       id="by_fccn_positive.svg"
       x="169.995"
       y="13.451"
       width="38.424999"
       height="12.341" /></clipPath><g
     clip-path="url(#_clip1)"
     id="g53"
     transform="matrix(1.7124442,0,0,1.7124442,-111.11196,-17.27606)"><path
       d="m 204.781,15.34 v 0.577 c 0,0.09 -0.026,0.16 -0.079,0.209 -0.057,0.051 -0.132,0.077 -0.208,0.074 -0.077,0.003 -0.151,-0.023 -0.208,-0.074 -0.053,-0.05 -0.08,-0.119 -0.08,-0.209 V 15.34 h 0.165 v 0.577 c 0,0.051 0.011,0.089 0.033,0.114 0.023,0.025 0.056,0.039 0.09,0.036 0.04,0 0.07,-0.011 0.091,-0.034 0.021,-0.024 0.031,-0.062 0.031,-0.116 V 15.34 Z m 0.712,0.847 h -0.165 l -0.259,-0.541 -0.003,10e-4 v 0.54 H 204.9 V 15.34 h 0.166 l 0.259,0.542 0.003,-0.002 v -0.54 h 0.165 z m 0.302,0 h -0.164 V 15.34 h 0.164 z m 0.303,-0.715 v 0.583 h 0.082 c 0.046,0 0.081,-0.02 0.106,-0.06 0.028,-0.049 0.041,-0.104 0.038,-0.16 v -0.144 c 0.003,-0.055 -0.01,-0.11 -0.038,-0.159 -0.021,-0.038 -0.063,-0.061 -0.106,-0.06 z m -0.165,0.715 V 15.34 h 0.256 c 0.087,0 0.158,0.033 0.215,0.099 0.057,0.066 0.085,0.15 0.085,0.254 v 0.142 c 0,0.104 -0.028,0.188 -0.085,0.254 -0.053,0.064 -0.132,0.1 -0.215,0.098 z m 0.849,-0.313 h 0.156 l -0.076,-0.299 h -0.004 z m 0.19,0.132 h -0.224 l -0.045,0.181 h -0.167 l 0.238,-0.847 h 0.173 l 0.237,0.847 h -0.166 z m 0.444,-0.534 v 0.583 h 0.081 c 0.044,0.001 0.085,-0.022 0.107,-0.06 0.027,-0.049 0.04,-0.104 0.037,-0.16 v -0.144 c 0.003,-0.055 -0.01,-0.11 -0.037,-0.159 -0.022,-0.038 -0.063,-0.061 -0.107,-0.06 z m -0.166,0.715 V 15.34 h 0.256 c 0.087,0 0.159,0.033 0.216,0.099 0.056,0.066 0.084,0.15 0.084,0.254 v 0.142 c 0,0.104 -0.028,0.188 -0.084,0.254 -0.053,0.064 -0.133,0.1 -0.216,0.098 z m 1.121,-0.372 h -0.285 v 0.241 h 0.335 v 0.131 H 207.92 V 15.34 h 0.499 v 0.132 h -0.333 v 0.212 h 0.285 z m -3.99,0.809 v 0.583 h 0.081 c 0.046,0 0.082,-0.02 0.107,-0.06 0.027,-0.049 0.04,-0.104 0.037,-0.16 v -0.144 c 0.003,-0.055 -0.01,-0.11 -0.037,-0.159 -0.022,-0.038 -0.063,-0.061 -0.107,-0.06 z m -0.165,0.715 v -0.847 h 0.256 c 0.086,0 0.158,0.033 0.215,0.099 0.057,0.066 0.085,0.15 0.085,0.254 v 0.142 c 0,0.104 -0.028,0.189 -0.085,0.254 -0.053,0.064 -0.133,0.1 -0.215,0.098 z m 0.848,-0.313 h 0.156 l -0.076,-0.3 h -0.003 z m 0.19,0.132 h -0.223 l -0.046,0.181 h -0.167 l 0.239,-0.847 h 0.172 l 0.238,0.847 H 205.3 Z m 0.994,-0.171 h -0.288 v 0.352 h -0.166 v -0.847 h 0.504 v 0.132 h -0.338 v 0.231 h 0.288 z m 0.669,0.08 0.001,0.003 c 0.001,0.093 -0.021,0.163 -0.066,0.211 -0.045,0.047 -0.111,0.071 -0.199,0.071 -0.088,0 -0.158,-0.027 -0.21,-0.081 -0.052,-0.054 -0.079,-0.13 -0.079,-0.228 V 16.79 c 0,-0.099 0.026,-0.175 0.076,-0.229 0.054,-0.055 0.128,-0.085 0.204,-0.081 0.09,0 0.158,0.024 0.204,0.072 0.046,0.048 0.07,0.12 0.071,0.214 l -0.002,0.003 h -0.159 c 0.002,-0.056 -0.005,-0.096 -0.023,-0.12 -0.017,-0.025 -0.047,-0.037 -0.091,-0.037 -0.034,-0.002 -0.067,0.015 -0.086,0.044 -0.02,0.029 -0.029,0.073 -0.029,0.132 v 0.254 c 0,0.06 0.01,0.105 0.031,0.134 0.022,0.029 0.057,0.046 0.093,0.043 0.04,0 0.068,-0.011 0.084,-0.034 0.015,-0.023 0.022,-0.063 0.02,-0.118 z m 0.584,-0.443 h -0.191 v 0.715 h -0.166 v -0.715 h -0.189 v -0.132 h 0.546 z m -27.127,0.523 c 0.55,0 1.002,-0.452 1.002,-1.002 0,-0.549 -0.452,-1.002 -1.002,-1.002 h -1.42 c -0.55,10e-4 -1.002,0.453 -1.002,1.003 v 6.583 c 0,0.01 0,0.019 0,0.028 0,0.55 0.452,1.002 1.002,1.002 0.55,0 1.002,-0.452 1.002,-1.002 0,-0.009 0,-0.018 0,-0.028 v -2.29 h 1.861 c 0.549,0 1.002,-0.452 1.002,-1.002 0,-0.549 -0.453,-1.002 -1.002,-1.002 h -1.861 v -1.288 z m 14.978,2.72 c -0.553,0 -0.923,0.422 -1.002,1.002 -0.063,0.47 -0.384,0.859 -0.858,0.859 -0.472,0 -0.859,-0.388 -0.859,-0.859 v -2.863 c 0,-0.471 0.387,-0.859 0.859,-0.859 0.474,0 0.793,0.389 0.858,0.859 0.079,0.563 0.449,1.002 1.002,1.002 0.55,0 1.002,-0.452 1.002,-1.002 0,-1.57 -1.292,-2.863 -2.862,-2.863 -1.571,0 -2.863,1.293 -2.863,2.863 v 2.863 c 0,1.57 1.292,2.862 2.863,2.862 1.57,0 2.862,-1.292 2.862,-2.862 0,0 0,-0.001 0,-0.001 0,-0.549 -0.452,-1.001 -1.002,-1.001 z m -6.549,0 c -0.553,0 -0.923,0.422 -1.002,1.002 -0.064,0.47 -0.385,0.859 -0.859,0.859 -0.471,0 -0.858,-0.388 -0.858,-0.859 v -2.863 c 0,-0.474 0.384,-0.859 0.858,-0.859 0.474,0 0.793,0.389 0.859,0.859 0.079,0.563 0.449,1.002 1.002,1.002 0.549,0 1.002,-0.452 1.002,-1.002 0,-0.011 0,-0.022 0,-0.033 0,-1.571 -1.292,-2.863 -2.863,-2.863 -1.57,0 -2.863,1.292 -2.863,2.863 0,0.011 0,0.022 0.001,0.033 v 2.863 c 0,1.57 1.292,2.862 2.862,2.862 1.571,0 2.863,-1.292 2.863,-2.862 0,0 0,-0.001 0,-0.001 0,-0.549 -0.453,-1.001 -1.002,-1.001 z m 8.588,3.014 c 0,0.007 0,0.013 0,0.02 0,0.549 0.452,1.002 1.002,1.002 0.55,0 1.002,-0.453 1.002,-1.002 0,-0.007 0,-0.013 0,-0.02 0,-0.55 -0.452,-1.002 -1.002,-1.002 -0.55,0 -1.002,0.452 -1.002,1.002 z m 0.234,-7.529 -0.008,0.01 c -0.02,0.025 -0.04,0.051 -0.058,0.078 -0.014,0.022 -0.027,0.044 -0.04,0.066 l -0.01,0.019 c -0.012,0.021 -0.022,0.043 -0.032,0.065 l -0.01,0.024 c -0.009,0.022 -0.017,0.044 -0.024,0.066 -0.012,0.032 -0.021,0.065 -0.027,0.098 l -0.005,0.022 c -0.007,0.032 -0.012,0.063 -0.015,0.095 -0.004,0.043 -0.006,0.086 -0.005,0.129 v 4.555 c 0.011,0.542 0.46,0.983 1.002,0.983 0.542,0 0.991,-0.441 1.002,-0.983 v -0.774 l 1.847,3.267 0.016,0.025 c 0.017,0.032 0.038,0.062 0.062,0.09 0.02,0.028 0.042,0.055 0.066,0.079 0.01,0.01 0.019,0.02 0.029,0.03 0.014,0.014 0.028,0.026 0.042,0.038 l 0.031,0.027 c 0.014,0.011 0.029,0.022 0.043,0.032 0.025,0.018 0.05,0.035 0.077,0.05 0.015,0.009 0.03,0.018 0.046,0.026 l 0.036,0.017 c 0.028,0.013 0.057,0.025 0.086,0.036 0.02,0.007 0.04,0.013 0.06,0.019 0.011,0.004 0.023,0.006 0.033,0.009 0.02,0.005 0.04,0.01 0.061,0.014 0.013,0.002 0.027,0.004 0.04,0.006 0.019,0.002 0.037,0.005 0.055,0.007 0.018,10e-4 0.035,0.002 0.053,0.003 0.012,0 0.024,0.002 0.037,0.002 l 0.008,-0.001 c 0.02,0 0.04,-0.002 0.06,-0.003 l 0.04,-0.003 c 0.016,-0.002 0.033,-0.005 0.05,-0.007 0.016,-0.003 0.033,-0.005 0.049,-0.009 0.01,-0.002 0.021,-0.005 0.032,-0.008 0.021,-0.005 0.044,-0.011 0.066,-0.017 l 0.016,-0.006 c 0.026,-0.009 0.052,-0.019 0.078,-0.03 l 0.012,-0.006 c 0.026,-0.012 0.052,-0.025 0.077,-0.038 0.001,-0.002 0.003,-0.002 0.004,-0.002 0.006,-0.003 0.011,-0.007 0.016,-0.01 0.021,-0.013 0.043,-0.026 0.064,-0.041 l 0.029,-0.022 c 0.016,-0.012 0.032,-0.024 0.047,-0.036 0.012,-0.01 0.022,-0.021 0.034,-0.032 0.012,-0.011 0.024,-0.022 0.036,-0.034 0.011,-0.012 0.022,-0.024 0.033,-0.037 l 0.031,-0.036 0.028,-0.038 c 0.01,-0.014 0.021,-0.028 0.03,-0.042 l 0.021,-0.035 c 0.016,-0.027 0.03,-0.054 0.044,-0.082 0.009,-0.02 0.018,-0.039 0.025,-0.059 0.012,-0.03 0.023,-0.061 0.032,-0.092 l 0.007,-0.03 c 0.006,-0.021 0.011,-0.042 0.015,-0.063 0.002,-0.013 0.004,-0.026 0.006,-0.039 0.002,-0.019 0.005,-0.037 0.007,-0.055 0.001,-0.018 0.002,-0.036 0.002,-0.054 0.001,-0.012 0.002,-0.024 0.002,-0.036 v -6.584 c 0,-0.549 -0.452,-1.002 -1.002,-1.002 -0.549,0 -1.002,0.453 -1.002,1.002 v 2.776 l -1.834,-3.245 c -0.02,-0.037 -0.042,-0.072 -0.066,-0.107 l -0.01,-0.014 c -0.016,-0.021 -0.032,-0.041 -0.049,-0.061 -0.007,-0.009 -0.014,-0.016 -0.021,-0.023 -0.014,-0.016 -0.029,-0.032 -0.045,-0.047 -0.009,-0.009 -0.018,-0.017 -0.027,-0.025 -0.015,-0.013 -0.03,-0.026 -0.046,-0.039 l -0.03,-0.022 c -0.042,-0.031 -0.088,-0.059 -0.135,-0.084 l -0.026,-0.013 c -0.021,-0.01 -0.042,-0.019 -0.063,-0.027 l -0.026,-0.01 c -0.021,-0.008 -0.043,-0.015 -0.065,-0.021 -0.01,-0.003 -0.02,-0.005 -0.031,-0.008 -0.034,-0.009 -0.069,-0.016 -0.104,-0.02 -0.037,-0.006 -0.075,-0.01 -0.113,-0.01 -0.01,0 -0.019,-10e-4 -0.028,-10e-4 h -0.006 c -0.026,0 -0.052,10e-4 -0.078,0.004 l -0.022,0.001 c -0.026,0.003 -0.053,0.007 -0.079,0.012 l -0.019,0.004 c -0.024,0.005 -0.048,0.011 -0.071,0.018 l -0.026,0.007 c -0.019,0.006 -0.039,0.013 -0.058,0.021 -0.012,0.004 -0.024,0.008 -0.035,0.013 -0.017,0.008 -0.034,0.016 -0.051,0.025 l -0.049,0.024 c -0.015,0.008 -0.029,0.018 -0.043,0.027 -0.009,0.006 -0.019,0.012 -0.029,0.019 -0.02,0.014 -0.039,0.028 -0.058,0.044 l -0.017,0.013 c -0.025,0.02 -0.048,0.042 -0.07,0.064 -0.02,0.02 -0.039,0.041 -0.057,0.062 z m -15.952,0.794 c 0,0.549 0.453,1.001 1.002,1.001 0.55,0 1.002,-0.452 1.002,-1.001 0,-0.55 -0.452,-1.002 -1.002,-1.002 -0.549,0 -1.002,0.452 -1.002,1.002 z"
       style="fill:#231f20"
       id="path49" /><path
       d="m 171.159,21.023 c 0.203,0 0.382,0.049 0.537,0.148 0.155,0.098 0.275,0.237 0.361,0.418 0.085,0.18 0.128,0.389 0.128,0.627 0,0.24 -0.043,0.452 -0.128,0.634 -0.086,0.182 -0.206,0.324 -0.361,0.425 -0.155,0.101 -0.334,0.152 -0.537,0.152 -0.18,0 -0.338,-0.039 -0.473,-0.119 -0.134,-0.079 -0.236,-0.191 -0.306,-0.337 v 0.423 h -0.385 v -3.349 h 0.385 v 1.434 c 0.07,-0.145 0.172,-0.258 0.306,-0.337 0.135,-0.079 0.293,-0.119 0.473,-0.119 z m -0.076,2.086 c 0.225,0 0.399,-0.078 0.523,-0.235 0.123,-0.157 0.185,-0.376 0.185,-0.658 0,-0.276 -0.062,-0.49 -0.185,-0.642 -0.124,-0.152 -0.298,-0.228 -0.523,-0.228 -0.225,0 -0.398,0.076 -0.52,0.228 -0.122,0.152 -0.183,0.369 -0.183,0.651 0,0.282 0.061,0.5 0.183,0.653 0.122,0.154 0.295,0.231 0.52,0.231 z m 2.523,-0.133 0.784,-1.891 h 0.384 l -1.368,3.164 h -0.394 l 0.389,-0.884 -0.978,-2.28 h 0.408 z"
       style="fill:#231f20;fill-rule:nonzero"
       id="path51" /></g></svg>
