<svg xmlns="http://www.w3.org/2000/svg" width="99.804" height="31.704" viewBox="0 0 99.804 31.704">
  <g id="Group_291" data-name="Group 291" transform="translate(-6230 -1753)">
    <path id="Path_54" data-name="Path 54" d="M146.28,207.577a7.95,7.95,0,0,0,7.946,7.964h.091a13.369,13.369,0,0,0,8.3-3.206v2.5h11.924v-1.927h-.453a2.214,2.214,0,0,1-2.213-2.214V188.72a2.214,2.214,0,0,1,2.213-2.214h.453v-1.927l-11.924,0v21.8c0,3.219-7.025,4.923-7.025-.292V191.925a8.013,8.013,0,0,0-8.013-8.013h-5.037v1.9c1.841.4,3.746,2.973,3.746,6.482h0Z" transform="translate(6155.265 1569.126)" fill="#0857ff"/>
    <path id="Path_55" data-name="Path 55" d="M89.89,191.875a7.95,7.95,0,0,0-7.947-7.964h-.09a13.373,13.373,0,0,0-8.3,3.206v-2.538H61.631V186.5h.452A2.214,2.214,0,0,1,64.3,188.72v21.973a2.214,2.214,0,0,1-2.214,2.215h-.452v1.926l11.924,0V193.068c0-3.218,7.025-4.923,7.025.293v14.165a8.013,8.013,0,0,0,8.013,8.013h5.037v-1.9c-1.841-.4-3.746-2.973-3.746-6.481h0Z" transform="translate(6168.369 1569.126)" fill="#0857ff"/>
    <path id="Path_56" data-name="Path 56" d="M131.932,207.058h0l0-12.7a10.2,10.2,0,0,0-7.016-9.756,15.847,15.847,0,0,0-14.186,2.352c.021.027.021.028,0,0a8.124,8.124,0,0,0-6.384-3.092H99.213v1.926c1.87.4,3.806,3.02,3.806,6.586h0l0,12.7a10.2,10.2,0,0,0,7.016,9.756,15.844,15.844,0,0,0,14.195-2.359,8.114,8.114,0,0,0,6.375,3.1h5.134v-1.927c-1.87-.4-3.806-3.02-3.806-6.586m-8.824,3.555a8.512,8.512,0,0,1-2.112.266c-4.7,0-8.506-3.043-8.506-7.741h0V192.008a8.12,8.12,0,0,0-.648-3.187l0,0a8.506,8.506,0,0,1,2.111-.266c4.7,0,8.507,3.044,8.507,7.741h0v11.131a8.116,8.116,0,0,0,.656,3.2l-.01-.02" transform="translate(6162.282 1569.133)" fill="#0857ff"/>
  </g>
</svg>
