<?xml version="1.0" standalone="no"?><svg xmlns="http://www.w3.org/2000/svg" xmlns:xlink="http://www.w3.org/1999/xlink" style="isolation:isolate" viewBox="0 0 221.98 70.51"  width="221.98" height="70.51"><defs><clipPath id="_clipPath_q8JcZ5RUp5lnBGQwCnkN1rL2nyVQvmEl"><rect width="221.98" height="70.51"/></clipPath></defs><g clip-path="url(#_clipPath_q8JcZ5RUp5lnBGQwCnkN1rL2nyVQvmEl)"><g><g><path d=" M 159.132 52.715 C 159.132 62.499 167.023 70.43 176.807 70.43 L 177.006 70.43 C 183.711 70.43 190.446 67.491 195.458 63.306 L 195.458 68.866 L 221.98 68.866 L 221.98 64.581 L 220.974 64.581 C 218.254 64.581 216.052 62.38 216.052 59.66 L 216.052 10.77 C 216.052 8.05 218.254 5.848 220.974 5.848 L 221.98 5.848 L 221.98 1.564 L 195.458 1.564 L 195.458 50.055 C 195.458 57.209 179.836 61.005 179.836 49.407 L 179.836 17.904 C 179.836 8.06 171.855 0.08 162.011 0.08 L 161.812 0.08 L 150.813 0.08 L 150.813 4.294 C 154.908 5.181 159.142 10.91 159.142 18.711 L 159.142 18.711 L 159.132 52.715 Z " fill="rgb(8,87,255)"/><path d=" M 62.858 17.794 C 62.858 8.01 54.967 0.08 45.183 0.08 L 44.984 0.08 C 38.279 0.08 31.543 3.019 26.532 7.203 L 26.532 1.554 L 0 1.554 L 0 5.838 L 1.006 5.838 C 3.726 5.838 5.928 8.04 5.928 10.76 L 5.928 59.63 C 5.928 62.35 3.726 64.552 1.006 64.552 L 0 64.552 L 0 68.836 L 26.522 68.836 L 26.522 20.444 C 26.522 13.291 42.144 9.495 42.144 21.092 L 42.144 52.596 C 42.144 62.439 50.125 70.42 59.968 70.42 L 60.168 70.42 L 71.167 70.42 L 71.167 66.205 C 67.072 65.319 62.838 59.59 62.838 51.789 L 62.838 51.789 L 62.858 17.794 Z " fill="rgb(8,87,255)"/><path d=" M 142.822 51.579 L 142.822 51.579 L 142.822 23.344 C 142.822 13.51 136.595 4.623 127.22 1.644 C 123.852 0.578 120.276 0 116.559 0 C 108.738 0 101.515 2.561 95.677 6.875 C 95.726 6.934 95.726 6.934 95.677 6.875 C 92.359 2.69 87.238 0 81.479 0 L 81.27 0 L 70.051 0 L 70.051 4.284 C 74.216 5.181 78.52 10.999 78.52 18.93 L 78.52 18.93 L 78.52 47.166 C 78.52 56.999 84.747 65.887 94.122 68.866 C 97.49 69.932 101.067 70.51 104.783 70.51 C 112.604 70.51 119.847 67.929 125.696 63.615 C 129.013 67.8 134.115 70.51 139.873 70.51 L 140.082 70.51 L 151.301 70.51 L 151.301 66.225 C 147.126 65.329 142.822 59.51 142.822 51.579 Z  M 123.205 59.48 C 121.7 59.859 120.126 60.068 118.512 60.068 C 108.061 60.068 99.592 53.303 99.592 42.852 L 99.592 42.852 L 99.592 18.103 C 99.592 15.582 99.074 13.191 98.147 11.009 C 98.147 11.009 98.147 11.019 98.147 11.019 C 99.652 10.641 101.226 10.431 102.84 10.431 C 113.291 10.431 121.76 17.196 121.76 27.648 L 121.76 27.648 L 121.76 52.406 C 121.76 54.937 122.288 57.348 123.225 59.53 C 123.215 59.51 123.205 59.5 123.205 59.48 Z " fill="rgb(8,87,255)"/></g></g></g></svg>