<?xml version="1.0" standalone="no"?><!-- Generator: Gravit.io --><svg xmlns="http://www.w3.org/2000/svg" xmlns:xlink="http://www.w3.org/1999/xlink" style="isolation:isolate" viewBox="0 0 221.522 32.958" width="221.522" height="32.958"><defs><clipPath id="_clipPath_ZqdC9qKCYWbNFLTLtSmfIeHrNY3LVbPX"><rect width="221.522" height="32.958"/></clipPath></defs><g clip-path="url(#_clipPath_ZqdC9qKCYWbNFLTLtSmfIeHrNY3LVbPX)"><g><g><path d=" M 114.069 8.867 L 115.523 8.867 C 115.603 10.282 116.599 11.149 118.393 11.149 C 120.206 11.149 121.182 10.501 121.182 9.156 C 121.182 8.05 120.385 7.562 119.15 7.303 L 117.486 6.944 C 115.513 6.526 114.457 5.609 114.457 3.866 C 114.457 1.943 115.892 0.737 118.413 0.737 C 120.854 0.737 122.458 2.102 122.468 4.125 L 121.013 4.125 C 120.943 2.889 120.136 2.042 118.373 2.042 C 116.908 2.042 115.932 2.58 115.932 3.866 C 115.932 4.792 116.669 5.3 117.875 5.559 L 119.419 5.888 C 121.541 6.327 122.657 7.423 122.657 9.166 C 122.657 11.199 121.023 12.444 118.393 12.444 C 115.623 12.444 114.138 11.019 114.069 8.867 Z " fill="rgb(85,85,85)"/><path d=" M 125.835 0.887 L 133.168 0.887 L 133.168 2.192 L 127.25 2.192 L 127.25 5.759 L 132.66 5.759 L 132.66 7.064 L 127.25 7.064 L 127.25 11.009 L 133.168 11.009 L 133.168 12.295 L 125.835 12.295 L 125.835 0.887 Z " fill="rgb(85,85,85)"/><path d=" M 136.426 0.887 L 138.1 0.887 L 141.946 7.841 L 142.015 7.841 L 145.861 0.887 L 147.505 0.887 L 147.505 12.295 L 146.15 12.295 L 146.15 3.148 L 146.08 3.148 L 142.045 10.342 L 141.876 10.342 L 137.841 3.099 L 137.771 3.099 L 137.771 12.295 L 136.426 12.295 L 136.426 0.887 Z " fill="rgb(85,85,85)"/><path d=" M 151.411 0.887 L 155.615 0.887 C 157.947 0.887 159.381 2.371 159.381 4.483 C 159.381 6.665 157.917 8.15 155.615 8.15 L 152.825 8.15 L 152.825 12.285 L 151.411 12.285 L 151.411 0.887 Z  M 155.436 6.855 C 157.02 6.855 157.917 6.028 157.917 4.493 C 157.917 3.029 156.97 2.182 155.436 2.182 L 152.825 2.182 L 152.825 6.855 L 155.436 6.855 Z " fill="rgb(85,85,85)"/><path d=" M 171.367 12.125 L 171.367 12.285 L 169.823 12.285 L 166.824 7.771 L 164.054 7.771 L 164.054 12.285 L 162.639 12.285 L 162.639 0.887 L 167.152 0.887 C 169.484 0.887 170.769 2.371 170.769 4.304 C 170.769 5.998 169.793 7.173 168.308 7.592 L 171.367 12.125 Z  M 164.054 6.476 L 167.073 6.476 C 168.507 6.476 169.285 5.689 169.285 4.324 C 169.285 2.989 168.498 2.192 167.073 2.192 L 164.054 2.192 L 164.054 6.476 Z " fill="rgb(85,85,85)"/><path d=" M 174.196 0.887 L 181.529 0.887 L 181.529 2.192 L 175.621 2.192 L 175.621 5.759 L 181.031 5.759 L 181.031 7.064 L 175.621 7.064 L 175.621 11.009 L 181.529 11.009 L 181.529 12.295 L 174.196 12.295 L 174.196 0.887 Z " fill="rgb(85,85,85)"/><path d=" M 123.882 31.334 L 123.882 31.494 L 122.368 31.494 L 121.292 28.515 L 116.31 28.515 L 115.224 31.494 L 113.74 31.494 L 113.74 31.334 L 117.924 20.096 L 119.668 20.096 L 123.882 31.334 Z  M 120.834 27.239 L 118.831 21.67 L 118.761 21.67 L 116.759 27.239 L 120.834 27.239 Z " fill="rgb(85,85,85)"/><path d=" M 141.178 31.334 L 141.178 31.494 L 139.664 31.494 L 138.588 28.515 L 133.606 28.515 L 132.53 31.494 L 131.046 31.494 L 131.046 31.334 L 135.23 20.096 L 136.974 20.096 L 141.178 31.334 Z  M 138.13 27.239 L 136.127 21.67 L 136.057 21.67 L 134.055 27.239 L 138.13 27.239 Z " fill="rgb(85,85,85)"/><path d=" M 143.948 20.086 L 148.153 20.086 C 150.484 20.086 151.919 21.57 151.919 23.683 C 151.919 25.864 150.454 27.349 148.153 27.349 L 145.363 27.349 L 145.363 31.484 L 143.948 31.484 L 143.948 20.086 Z  M 147.973 26.054 C 149.557 26.054 150.454 25.227 150.454 23.692 C 150.454 22.228 149.508 21.381 147.973 21.381 L 145.363 21.381 L 145.363 26.054 L 147.973 26.054 Z " fill="rgb(85,85,85)"/><path d=" M 163.904 31.334 L 163.904 31.494 L 162.36 31.494 L 159.361 26.98 L 156.592 26.98 L 156.592 31.494 L 155.177 31.494 L 155.177 20.086 L 159.69 20.086 C 162.021 20.086 163.307 21.57 163.307 23.503 C 163.307 25.197 162.33 26.373 160.846 26.791 L 163.904 31.334 Z  M 156.592 25.675 L 159.61 25.675 C 161.045 25.675 161.822 24.888 161.822 23.523 C 161.822 22.188 161.035 21.391 159.61 21.391 L 156.592 21.391 L 156.592 25.675 Z " fill="rgb(85,85,85)"/><path d=" M 166.734 20.086 L 174.067 20.086 L 174.067 21.391 L 168.159 21.391 L 168.159 24.958 L 173.569 24.958 L 173.569 26.263 L 168.159 26.263 L 168.159 30.208 L 174.067 30.208 L 174.067 31.494 L 166.734 31.494 L 166.734 20.086 Z " fill="rgb(85,85,85)"/><path d=" M 177.325 20.086 L 178.879 20.086 L 184.708 29.162 L 184.777 29.162 L 184.777 20.086 L 186.172 20.086 L 186.172 31.494 L 184.608 31.494 L 178.78 22.467 L 178.71 22.467 L 178.71 31.494 L 177.325 31.494 L 177.325 20.086 Z " fill="rgb(85,85,85)"/><path d=" M 190.078 20.086 L 193.854 20.086 C 197.102 20.086 198.935 22.367 198.935 25.785 C 198.935 28.963 197.261 31.484 193.854 31.484 L 190.078 31.484 L 190.078 20.086 Z  M 193.714 30.208 C 196.335 30.208 197.48 28.176 197.48 25.795 C 197.48 23.433 196.345 21.391 193.714 21.391 L 191.503 21.391 L 191.503 30.208 L 193.714 30.208 Z " fill="rgb(85,85,85)"/><path d=" M 202.203 20.086 L 209.536 20.086 L 209.536 21.391 L 203.618 21.391 L 203.618 24.958 L 209.028 24.958 L 209.028 26.263 L 203.618 26.263 L 203.618 30.208 L 209.536 30.208 L 209.536 31.494 L 202.203 31.494 L 202.203 20.086 Z " fill="rgb(85,85,85)"/><path d=" M 221.522 31.334 L 221.522 31.494 L 219.977 31.494 L 216.978 26.98 L 214.209 26.98 L 214.209 31.494 L 212.794 31.494 L 212.794 20.086 L 217.307 20.086 C 219.639 20.086 220.924 21.57 220.924 23.503 C 220.924 25.197 219.947 26.373 218.463 26.791 L 221.522 31.334 Z  M 214.209 25.675 L 217.228 25.675 C 218.662 25.675 219.439 24.888 219.439 23.523 C 219.439 22.188 218.652 21.391 217.228 21.391 L 214.209 21.391 L 214.209 25.675 Z " fill="rgb(85,85,85)"/><path d=" M 74.415 24.639 C 74.415 29.212 78.101 32.918 82.685 32.918 L 82.774 32.918 C 85.913 32.918 89.061 31.543 91.402 29.581 L 91.402 32.181 L 103.807 32.181 L 103.807 30.188 L 103.338 30.188 C 102.063 30.188 101.037 29.162 101.037 27.887 L 101.037 5.031 C 101.037 3.756 102.063 2.73 103.338 2.73 L 103.807 2.73 L 103.807 0.727 L 91.402 0.727 L 91.402 23.404 C 91.402 26.751 84.099 28.525 84.099 23.095 L 84.099 8.359 C 84.099 3.756 80.373 0.03 75.77 0.03 L 75.68 0.03 L 70.539 0.03 L 70.539 2.003 C 72.452 2.411 74.435 5.091 74.435 8.748 L 74.435 8.748 L 74.415 24.639 Z " fill="rgb(85,85,85)"/><path d=" M 29.391 8.309 C 29.391 3.736 25.705 0.03 21.122 0.03 L 21.032 0.03 C 17.894 0.03 14.746 1.405 12.404 3.368 L 12.404 0.727 L 0 0.727 L 0 2.73 L 0.468 2.73 C 1.744 2.73 2.77 3.756 2.77 5.031 L 2.77 27.887 C 2.77 29.162 1.744 30.188 0.468 30.188 L 0 30.188 L 0 32.191 L 12.404 32.191 L 12.404 9.555 C 12.404 6.207 19.707 4.434 19.707 9.864 L 19.707 24.599 C 19.707 29.202 23.443 32.928 28.036 32.928 L 28.126 32.928 L 33.267 32.928 L 33.267 30.956 C 31.354 30.547 29.371 27.867 29.371 24.211 L 29.371 24.211 L 29.391 8.309 Z " fill="rgb(85,85,85)"/><path d=" M 66.783 24.111 L 66.783 24.111 L 66.783 10.91 C 66.783 6.317 63.874 2.152 59.49 0.767 C 57.916 0.269 56.242 0 54.499 0 C 50.842 0 47.465 1.196 44.735 3.218 C 44.755 3.248 44.755 3.248 44.735 3.218 C 43.18 1.255 40.789 0 38.099 0 L 38 0 L 32.759 0 L 32.759 2.003 C 34.702 2.421 36.714 5.141 36.714 8.847 L 36.714 8.847 L 36.714 22.049 C 36.714 26.652 39.624 30.806 44.007 32.191 C 45.582 32.689 47.255 32.958 48.989 32.958 C 52.646 32.958 56.033 31.753 58.763 29.74 C 60.317 31.693 62.698 32.958 65.388 32.958 L 65.488 32.958 L 70.729 32.958 L 70.729 30.956 C 68.796 30.537 66.783 27.817 66.783 24.111 Z  M 57.607 27.807 C 56.91 27.987 56.172 28.086 55.415 28.086 C 50.533 28.086 46.568 24.918 46.568 20.036 L 46.568 20.036 L 46.568 8.459 C 46.568 7.283 46.329 6.167 45.89 5.141 C 45.89 5.141 45.89 5.141 45.89 5.141 C 46.588 4.962 47.325 4.862 48.082 4.862 C 52.964 4.862 56.93 8.03 56.93 12.912 L 56.93 12.912 L 56.93 24.49 C 56.93 25.675 57.179 26.801 57.617 27.817 C 57.617 27.817 57.617 27.807 57.607 27.807 Z " fill="rgb(85,85,85)"/></g></g></g></svg>