<?xml version="1.0" encoding="utf-8"?>
<!-- Generator: Adobe Illustrator 23.1.0, SVG Export Plug-In . SVG Version: 6.00 Build 0)  -->
<svg version="1.1" id="Layer_1" xmlns="http://www.w3.org/2000/svg" xmlns:xlink="http://www.w3.org/1999/xlink" x="0px" y="0px"
	 viewBox="0 0 221.52 32.96" style="enable-background:new 0 0 221.52 32.96;" xml:space="preserve">
<style type="text/css">
	.st0{clip-path:url(#SVGID_2_);}
	.st1{fill:#231F20;}
	.st2{fill:#0857FF;}
</style>
<g>
	<defs>
		<rect id="SVGID_1_" y="0" width="221.52" height="32.96"/>
	</defs>
	<clipPath id="SVGID_2_">
		<use xlink:href="#SVGID_1_"  style="overflow:visible;"/>
	</clipPath>
	<g class="st0">
		<g>
			<g>
				<path class="st1" d="M114.07,8.87h1.45c0.08,1.41,1.08,2.28,2.87,2.28c1.81,0,2.79-0.65,2.79-1.99c0-1.11-0.8-1.59-2.03-1.85
					l-1.66-0.36c-1.97-0.42-3.03-1.33-3.03-3.08c0-1.92,1.43-3.13,3.96-3.13c2.44,0,4.04,1.37,4.06,3.39h-1.46
					c-0.07-1.24-0.88-2.08-2.64-2.08c-1.47,0-2.44,0.54-2.44,1.82c0,0.93,0.74,1.43,1.94,1.69l1.54,0.33
					c2.12,0.44,3.24,1.53,3.24,3.28c0,2.03-1.63,3.28-4.26,3.28C115.62,12.44,114.14,11.02,114.07,8.87z"/>
				<path class="st1" d="M125.83,0.89h7.33v1.31h-5.92v3.57h5.41v1.31h-5.41v3.95h5.92v1.29h-7.33V0.89z"/>
				<path class="st1" d="M136.43,0.89h1.67l3.85,6.95h0.07l3.85-6.95h1.64v11.41h-1.36V3.15h-0.07l-4.04,7.19h-0.17l-4.04-7.24
					h-0.07v9.2h-1.35V0.89z"/>
				<path class="st1" d="M151.41,0.89h4.2c2.33,0,3.77,1.48,3.77,3.6c0,2.18-1.46,3.67-3.77,3.67h-2.79v4.14h-1.41V0.89z
					 M155.44,6.85c1.58,0,2.48-0.83,2.48-2.36c0-1.46-0.95-2.31-2.48-2.31h-2.61v4.67H155.44z"/>
				<path class="st1" d="M171.37,12.12v0.16h-1.54l-3-4.51h-2.77v4.51h-1.41V0.89h4.51c2.33,0,3.62,1.48,3.62,3.42
					c0,1.69-0.98,2.87-2.46,3.29L171.37,12.12z M164.05,6.48h3.02c1.43,0,2.21-0.79,2.21-2.15c0-1.33-0.79-2.13-2.21-2.13h-3.02
					V6.48z"/>
				<path class="st1" d="M174.2,0.89h7.33v1.31h-5.91v3.57h5.41v1.31h-5.41v3.95h5.91v1.29h-7.33V0.89z"/>
				<path class="st1" d="M123.88,31.33v0.16h-1.51l-1.08-2.98h-4.98l-1.09,2.98h-1.48v-0.16l4.18-11.24h1.74L123.88,31.33z
					 M120.83,27.24l-2-5.57h-0.07l-2,5.57H120.83z"/>
				<path class="st1" d="M141.18,31.33v0.16h-1.51l-1.08-2.98h-4.98l-1.08,2.98h-1.48v-0.16l4.18-11.24h1.74L141.18,31.33z
					 M138.13,27.24l-2-5.57h-0.07l-2,5.57H138.13z"/>
				<path class="st1" d="M143.95,20.09h4.21c2.33,0,3.77,1.48,3.77,3.6c0,2.18-1.47,3.67-3.77,3.67h-2.79v4.13h-1.42V20.09z
					 M147.97,26.05c1.58,0,2.48-0.83,2.48-2.36c0-1.46-0.95-2.31-2.48-2.31h-2.61v4.67H147.97z"/>
				<path class="st1" d="M163.9,31.33v0.16h-1.54l-3-4.51h-2.77v4.51h-1.41V20.09h4.51c2.33,0,3.62,1.48,3.62,3.42
					c0,1.69-0.98,2.87-2.46,3.29L163.9,31.33z M156.59,25.67h3.02c1.43,0,2.21-0.79,2.21-2.15c0-1.34-0.79-2.13-2.21-2.13h-3.02
					V25.67z"/>
				<path class="st1" d="M166.73,20.09h7.33v1.31h-5.91v3.57h5.41v1.31h-5.41v3.94h5.91v1.29h-7.33V20.09z"/>
				<path class="st1" d="M177.32,20.09h1.55l5.83,9.08h0.07v-9.08h1.4v11.41h-1.56l-5.83-9.03h-0.07v9.03h-1.39V20.09z"/>
				<path class="st1" d="M190.08,20.09h3.78c3.25,0,5.08,2.28,5.08,5.7c0,3.18-1.67,5.7-5.08,5.7h-3.78V20.09z M193.71,30.21
					c2.62,0,3.77-2.03,3.77-4.41c0-2.36-1.13-4.4-3.77-4.4h-2.21v8.82H193.71z"/>
				<path class="st1" d="M202.2,20.09h7.33v1.31h-5.92v3.57h5.41v1.31h-5.41v3.94h5.92v1.29h-7.33V20.09z"/>
				<path class="st1" d="M221.52,31.33v0.16h-1.54l-3-4.51h-2.77v4.51h-1.41V20.09h4.51c2.33,0,3.62,1.48,3.62,3.42
					c0,1.69-0.98,2.87-2.46,3.29L221.52,31.33z M214.21,25.67h3.02c1.43,0,2.21-0.79,2.21-2.15c0-1.34-0.79-2.13-2.21-2.13h-3.02
					V25.67z"/>
				<path class="st2" d="M74.42,24.64c0,4.57,3.69,8.28,8.27,8.28h0.09c3.14,0,6.29-1.38,8.63-3.34v2.6h12.4v-1.99h-0.47
					c-1.27,0-2.3-1.03-2.3-2.3V5.03c0-1.27,1.03-2.3,2.3-2.3h0.47v-2H91.4V23.4c0,3.35-7.3,5.12-7.3-0.31V8.36
					c0-4.6-3.73-8.33-8.33-8.33h-0.09h-5.14V2c1.91,0.41,3.9,3.09,3.9,6.75l0,0L74.42,24.64z"/>
				<path class="st2" d="M29.39,8.31c0-4.57-3.69-8.28-8.27-8.28h-0.09c-3.14,0-6.29,1.38-8.63,3.34V0.73H0v2h0.47
					c1.28,0,2.3,1.03,2.3,2.3v22.86c0,1.28-1.03,2.3-2.3,2.3H0v2h12.4V9.55c0-3.35,7.3-5.12,7.3,0.31V24.6
					c0,4.6,3.74,8.33,8.33,8.33h0.09h5.14v-1.97c-1.91-0.41-3.9-3.09-3.9-6.74l0,0L29.39,8.31z"/>
				<path class="st2" d="M66.78,24.11L66.78,24.11v-13.2c0-4.59-2.91-8.76-7.29-10.14C57.92,0.27,56.24,0,54.5,0
					c-3.66,0-7.03,1.2-9.76,3.22c0.02,0.03,0.02,0.03,0,0C43.18,1.25,40.79,0,38.1,0H38h-5.24v2c1.94,0.42,3.96,3.14,3.96,6.84l0,0
					v13.2c0,4.6,2.91,8.76,7.29,10.14c1.58,0.5,3.25,0.77,4.98,0.77c3.66,0,7.04-1.2,9.77-3.22c1.55,1.95,3.94,3.22,6.63,3.22h0.1
					h5.24v-2C68.8,30.54,66.78,27.82,66.78,24.11z M57.61,27.81c-0.7,0.18-1.43,0.28-2.19,0.28c-4.88,0-8.85-3.17-8.85-8.05l0,0
					V8.46c0-1.18-0.24-2.29-0.68-3.32l0,0c0.7-0.18,1.44-0.28,2.19-0.28c4.88,0,8.85,3.17,8.85,8.05l0,0v11.58
					c0,1.18,0.25,2.31,0.69,3.33C57.62,27.82,57.62,27.81,57.61,27.81z"/>
			</g>
		</g>
	</g>
</g>
</svg>
