<svg xmlns="http://www.w3.org/2000/svg" xmlns:xlink="http://www.w3.org/1999/xlink" width="133.167" height="31.96" viewBox="0 0 133.167 31.96">
  <defs>
    <clipPath id="clip-path">
      <rect id="Rectangle_39" data-name="Rectangle 39" width="56.06" height="25.855" fill="#6c6e6f"/>
    </clipPath>
    <clipPath id="clip-path-2">
      <rect id="Rectangle_40" data-name="Rectangle 40" width="133.167" height="31.96" fill="#6c6e6f"/>
    </clipPath>
  </defs>
  <g id="Group_203" data-name="Group 203" transform="translate(-706.869 -256.117)">
    <path id="Path_78" data-name="Path 78" d="M927.763,268.222v4.108h2.327l-4.147,5.116-4.152-5.116h2.337v-4.108h-7.648v4.6l6.609,8.145-6.609,8.153v.82h3.151v4.137h4.5v-4.137h-2.6l4.419-5.453h0l4.425,5.453h-2.608v4.137H938v-4.137h-1.92l-7.281-8.974,7-8.636H938v-4.108Z" transform="translate(-103.878 -5.999)" fill="#6c6e6f"/>
    <path id="Path_79" data-name="Path 79" d="M911.252,268.221v4.108h2.238l.4.491v-4.6Z" transform="translate(-101.288 -5.999)" fill="#6c6e6f"/>
    <path id="Path_80" data-name="Path 80" d="M913.224,310.47h-1.972v4.137h5.788V310.47h-3.151v-.82Z" transform="translate(-101.288 -26.53)" fill="#6c6e6f"/>
    <g id="Group_200" data-name="Group 200" transform="translate(778.061 262.223)">
      <g id="Group_199" data-name="Group 199" transform="translate(0 0)" clip-path="url(#clip-path)">
        <path id="Path_81" data-name="Path 81" d="M878.675,307.448h3.634a9.95,9.95,0,0,1-1.783,2.88,10.036,10.036,0,0,1-1.852-2.88" transform="translate(-863.204 -287.661)" fill="#6c6e6f"/>
        <path id="Path_82" data-name="Path 82" d="M879.753,286.25a10.019,10.019,0,0,0-2.256,4.029,5.846,5.846,0,0,1,.413,1.036H881.5a5.746,5.746,0,0,1,.423-1.02,10.029,10.029,0,0,0-2.174-4.044m-1.844,5.064a6.182,6.182,0,0,1,.027,3.348h3.54a5.889,5.889,0,0,1,.028-3.348Zm0,0h-.649a10.184,10.184,0,0,0-.016,3.348h.692a6.182,6.182,0,0,0-.027-3.348" transform="translate(-862.43 -277.156)" fill="#6c6e6f"/>
        <path id="Path_83" data-name="Path 83" d="M896.7,272.328h-2.239v-4.107h-4.227v4.107h2.731v3.541a9.659,9.659,0,0,0-5.679-1.812,10.015,10.015,0,0,0-7.4,3.258,10.038,10.038,0,0,1,2.173,4.044,5.861,5.861,0,0,1,5.182-3.12,5.749,5.749,0,0,1,5.728,5.863v.032a5.748,5.748,0,0,1-5.728,5.831,5.864,5.864,0,0,1-5.634-4.236h-4.231a10.029,10.029,0,0,0,.657,2.28h3.634a9.944,9.944,0,0,1-1.782,2.881,10.017,10.017,0,0,0,7.4,3.257A9.649,9.649,0,0,0,894.462,291v-1.065h1.972l.665-.82v-16.3Zm-3.735,20.005v1.814h1.5V291a9.743,9.743,0,0,1-1.5,1.331m-15.34-10.99a9.756,9.756,0,0,0-.237,1.036h.649a5.956,5.956,0,0,0-.412-1.036" transform="translate(-862.559 -268.221)" fill="#6c6e6f"/>
        <path id="Path_84" data-name="Path 84" d="M867.723,288.113q-.086-.52-.221-1.021a5.762,5.762,0,0,0-.423,1.021,5.9,5.9,0,0,0-.029,3.348h.688a10.695,10.695,0,0,0-.015-3.348m-9.673-8.322a10.046,10.046,0,0,0-9.9,8.322H852.4A5.865,5.865,0,0,1,858,283.973a5.654,5.654,0,0,1,5.07,3.1,10.016,10.016,0,0,1,2.256-4.029,9.642,9.642,0,0,0-7.278-3.258m4.248,13.951A5.63,5.63,0,0,1,858,295.7a5.864,5.864,0,0,1-5.633-4.236h10.451a10.145,10.145,0,0,1,.016-3.348H848.153a10.043,10.043,0,0,0,9.9,11.766,9.642,9.642,0,0,0,7.278-3.258,10.022,10.022,0,0,1-1.852-2.88Z" transform="translate(-848.005 -273.955)" fill="#6c6e6f"/>
      </g>
    </g>
    <path id="Path_85" data-name="Path 85" d="M824.1,297.214h.054v-16.3H826.1v19.135H823.67l-11.136-16.46h-.054v16.46h-1.945V280.916h2.432Z" transform="translate(-51.374 -12.29)" fill="#6c6e6f"/>
    <path id="Path_86" data-name="Path 86" d="M782.223,298.322h10.243v1.73H780.276V280.916h11.865v1.73h-9.919v6.568h9.27v1.73h-9.27Z" transform="translate(-36.379 -12.29)" fill="#6c6e6f"/>
    <g id="Group_202" data-name="Group 202" transform="translate(706.869 256.117)">
      <g id="Group_201" data-name="Group 201" clip-path="url(#clip-path-2)">
        <path id="Path_87" data-name="Path 87" d="M751.91,280.916h5.405a10.5,10.5,0,0,1,2.649.311,5.86,5.86,0,0,1,2.04.946,4.255,4.255,0,0,1,1.311,1.595,5.177,5.177,0,0,1,.46,2.257,5.054,5.054,0,0,1-.473,2.257,4.368,4.368,0,0,1-1.325,1.594,6,6,0,0,1-2.054.959,10.2,10.2,0,0,1-2.662.324h-3.405v8.892H751.91Zm1.946,8.595h3.3a5.754,5.754,0,0,0,3.487-.892,3.045,3.045,0,0,0,1.189-2.595,2.914,2.914,0,0,0-1.229-2.608,6.149,6.149,0,0,0-3.446-.825h-3.3Z" transform="translate(-729.19 -268.407)" fill="#6c6e6f"/>
        <path id="Path_88" data-name="Path 88" d="M726.58,289.715a10.363,10.363,0,0,1-.748,3.979,9.387,9.387,0,0,1-5.195,5.209,10.615,10.615,0,0,1-7.826,0,9.387,9.387,0,0,1-5.2-5.209,10.967,10.967,0,0,1,0-7.959,9.387,9.387,0,0,1,5.2-5.209,10.615,10.615,0,0,1,7.826,0,9.387,9.387,0,0,1,5.195,5.209,10.364,10.364,0,0,1,.748,3.98m-2.03.013a9.283,9.283,0,0,0-.534-3.147,7.873,7.873,0,0,0-1.549-2.627,7.423,7.423,0,0,0-2.471-1.8,8.361,8.361,0,0,0-6.544,0,7.406,7.406,0,0,0-2.471,1.8,7.853,7.853,0,0,0-1.549,2.627,9.533,9.533,0,0,0,0,6.293,7.706,7.706,0,0,0,1.549,2.613,7.5,7.5,0,0,0,2.471,1.787,8.366,8.366,0,0,0,6.544,0,7.515,7.515,0,0,0,2.471-1.787,7.725,7.725,0,0,0,1.549-2.613,9.281,9.281,0,0,0,.534-3.147" transform="translate(-706.869 -267.843)" fill="#6c6e6f"/>
        <path id="Path_89" data-name="Path 89" d="M710.652,256.457h1.908a3.7,3.7,0,0,1,.935.11,2.064,2.064,0,0,1,.72.334,1.5,1.5,0,0,1,.463.562,1.83,1.83,0,0,1,.162.8,1.788,1.788,0,0,1-.167.8,1.537,1.537,0,0,1-.467.562,2.125,2.125,0,0,1-.725.339,3.616,3.616,0,0,1-.94.114h-1.2v3.138h-.687Zm.687,3.034H712.5a2.032,2.032,0,0,0,1.231-.315,1.075,1.075,0,0,0,.42-.916,1.028,1.028,0,0,0-.434-.92,2.167,2.167,0,0,0-1.216-.291h-1.164Z" transform="translate(-708.744 -256.286)" fill="#6c6e6f"/>
        <path id="Path_90" data-name="Path 90" d="M729.076,259.666a3.7,3.7,0,0,1-.267,1.421,3.354,3.354,0,0,1-1.856,1.86,3.792,3.792,0,0,1-2.794,0,3.354,3.354,0,0,1-1.856-1.86,3.919,3.919,0,0,1,0-2.842,3.354,3.354,0,0,1,1.856-1.86,3.792,3.792,0,0,1,2.794,0,3.354,3.354,0,0,1,1.856,1.86,3.7,3.7,0,0,1,.267,1.421m-.725,0a3.315,3.315,0,0,0-.191-1.124,2.8,2.8,0,0,0-.553-.938,2.656,2.656,0,0,0-.882-.643,2.988,2.988,0,0,0-2.337,0,2.65,2.65,0,0,0-.882.643,2.814,2.814,0,0,0-.553.938,3.407,3.407,0,0,0,0,2.248,2.759,2.759,0,0,0,.553.933,2.688,2.688,0,0,0,.882.639,2.993,2.993,0,0,0,2.337,0,2.694,2.694,0,0,0,.882-.639,2.749,2.749,0,0,0,.553-.933,3.313,3.313,0,0,0,.191-1.124" transform="translate(-714.385 -256.117)" fill="#6c6e6f"/>
        <path id="Path_91" data-name="Path 91" d="M740.089,262.266h.019l1.688-5.809h.82l1.689,5.809h.019l1.65-5.809h.725l-1.994,6.754h-.8l-1.7-5.8h-.019l-1.7,5.8h-.8l-1.994-6.754h.725Z" transform="translate(-722.145 -256.285)" fill="#6c6e6f"/>
        <path id="Path_92" data-name="Path 92" d="M759.788,262.6H763.4v.61h-4.3v-6.754h4.188v.611h-3.5v2.318h3.272V260h-3.272Z" transform="translate(-732.754 -256.285)" fill="#6c6e6f"/>
        <path id="Path_93" data-name="Path 93" d="M772.5,263.211h-.687v-6.754h1.984a4.2,4.2,0,0,1,.921.1,2.072,2.072,0,0,1,.734.31,1.458,1.458,0,0,1,.482.558,1.863,1.863,0,0,1,.172.839,1.648,1.648,0,0,1-.5,1.207,1.742,1.742,0,0,1-.544.358,2.371,2.371,0,0,1-.687.172l1.975,3.215h-.839l-1.87-3.158H772.5Zm0-3.749h1.193a2.289,2.289,0,0,0,1.278-.3,1.013,1.013,0,0,0,.449-.9,1.168,1.168,0,0,0-.124-.563,1.017,1.017,0,0,0-.343-.372,1.564,1.564,0,0,0-.534-.21,3.37,3.37,0,0,0-.7-.067H772.5Z" transform="translate(-739.052 -256.286)" fill="#6c6e6f"/>
        <path id="Path_94" data-name="Path 94" d="M784.958,262.6h3.615v.61h-4.3v-6.754h4.188v.611h-3.5v2.318h3.272V260h-3.272Z" transform="translate(-745.228 -256.285)" fill="#6c6e6f"/>
        <path id="Path_95" data-name="Path 95" d="M796.979,256.457h2.242a4.008,4.008,0,0,1,1.264.21,3.489,3.489,0,0,1,1.145.635,3.213,3.213,0,0,1,.825,1.059,3.619,3.619,0,0,1,0,2.952,3.227,3.227,0,0,1-.825,1.054,3.477,3.477,0,0,1-1.145.634,3.994,3.994,0,0,1-1.264.21h-2.242Zm.687,6.143h1.364a3.419,3.419,0,0,0,1.331-.239,2.783,2.783,0,0,0,.94-.624,2.544,2.544,0,0,0,.558-.883,2.891,2.891,0,0,0,0-2.041,2.547,2.547,0,0,0-.558-.882,2.783,2.783,0,0,0-.94-.625,3.418,3.418,0,0,0-1.331-.238h-1.364Z" transform="translate(-751.526 -256.286)" fill="#6c6e6f"/>
        <path id="Path_96" data-name="Path 96" d="M819.048,256.458h2.013a3.8,3.8,0,0,1,.772.081,2.1,2.1,0,0,1,.7.277,1.53,1.53,0,0,1,.506.529,1.642,1.642,0,0,1,.2.839,1.418,1.418,0,0,1-.326.93,1.533,1.533,0,0,1-.873.52v.019a1.784,1.784,0,0,1,1.09.51,1.6,1.6,0,0,1,.433,1.178,1.656,1.656,0,0,1-.676,1.359,2.41,2.41,0,0,1-.79.377,3.813,3.813,0,0,1-1.047.133h-2Zm.687,2.957h1.383a2.256,2.256,0,0,0,.5-.057,1.389,1.389,0,0,0,.463-.2,1.048,1.048,0,0,0,.338-.367,1.131,1.131,0,0,0,.129-.563,1.08,1.08,0,0,0-.129-.548,1.069,1.069,0,0,0-.348-.368,1.494,1.494,0,0,0-.516-.2,3.051,3.051,0,0,0-.629-.062h-1.192Zm0,3.205h1.278a3.418,3.418,0,0,0,.711-.072,1.812,1.812,0,0,0,.591-.229,1.217,1.217,0,0,0,.406-.41,1.306,1.306,0,0,0-.3-1.6,2.155,2.155,0,0,0-1.283-.329h-1.4Z" transform="translate(-762.463 -256.286)" fill="#6c6e6f"/>
        <path id="Path_97" data-name="Path 97" d="M832.891,263.211H832.2V260.3l-2.528-3.844h.859l2.031,3.272,2.051-3.272h.8l-2.528,3.844Z" transform="translate(-767.73 -256.285)" fill="#6c6e6f"/>
        <path id="Path_98" data-name="Path 98" d="M962.793,270.331a2.014,2.014,0,0,1,.271-1.015,2.033,2.033,0,0,1,1.766-1.021,2.017,2.017,0,0,1,1.016.27,2.037,2.037,0,1,1-2.788,2.771,2.017,2.017,0,0,1-.264-1m.284,0a1.754,1.754,0,0,0,1.752,1.752,1.7,1.7,0,0,0,.875-.236,1.759,1.759,0,0,0,.64-.638,1.744,1.744,0,0,0,0-1.754,1.768,1.768,0,0,0-.638-.64,1.741,1.741,0,0,0-1.753,0,1.767,1.767,0,0,0-.641.638,1.7,1.7,0,0,0-.237.879m2.578-.493a.658.658,0,0,1-.115.383.68.68,0,0,1-.323.248l.644,1.069h-.455l-.56-.958h-.366v.958h-.4v-2.413h.707a1.017,1.017,0,0,1,.659.176.66.66,0,0,1,.21.536m-1.175.409h.292a.515.515,0,0,0,.348-.112.36.36,0,0,0,.132-.285.34.34,0,0,0-.117-.291.613.613,0,0,0-.369-.088h-.287Z" transform="translate(-833.699 -262.152)" fill="#6c6e6f"/>
      </g>
    </g>
  </g>
</svg>
