<?xml version="1.0" standalone="no"?><!-- Generator: Gravit.io --><svg xmlns="http://www.w3.org/2000/svg" xmlns:xlink="http://www.w3.org/1999/xlink" style="isolation:isolate" viewBox="0 0 418 81" width="418" height="81"><g><g><path d=" M 398.53 12.834 L 398.53 0 L 366.553 0 L 366.553 12.834 L 373.825 12.834 L 360.861 28.818 L 347.897 12.834 L 355.189 12.834 L 355.189 0 L 331.298 0 L 331.298 14.364 L 351.95 39.815 L 331.298 65.285 L 331.298 67.848 L 341.142 67.848 L 341.142 81 L 355.189 81 L 355.189 67.848 L 347.063 67.848 L 360.871 50.811 L 360.871 50.811 L 374.699 67.848 L 366.553 67.848 L 366.553 81 L 398.53 81 L 398.53 67.848 L 392.53 67.848 L 369.791 39.815 L 391.656 12.834 L 398.53 12.834 Z " fill="rgb(29,157,217)"/><path d=" M 323.063 0 L 323.063 12.834 L 330.056 12.834 L 331.298 14.364 L 331.298 0 L 323.063 0 Z " fill="rgb(0,107,163)"/><path d=" M 331.298 67.848 L 331.298 65.285 L 329.222 67.848 L 323.063 67.848 L 323.063 81 L 341.142 81 L 341.142 67.848 L 331.298 67.848 Z " fill="rgb(0,107,163)"/><path d=" M 271.725 61.818 L 283.08 61.818 C 281.729 65.146 279.841 68.185 277.507 70.818 C 275.103 68.185 273.136 65.146 271.725 61.818 Z " fill="rgb(120,33,46)"/><path d=" M 277.517 28.411 C 274.268 31.957 271.825 36.248 270.464 40.997 C 270.99 42.02 271.417 43.103 271.755 44.235 L 282.98 44.235 C 283.318 43.123 283.765 42.06 284.301 41.046 C 283.01 36.268 280.666 31.967 277.517 28.411 Z  M 271.755 44.235 C 272.252 45.934 272.52 47.742 272.52 49.619 C 272.52 51.377 272.282 53.086 271.835 54.695 L 282.891 54.695 C 282.424 53.086 282.176 51.377 282.176 49.619 C 282.176 47.752 282.454 45.944 282.98 44.235 L 271.755 44.235 Z  M 271.755 44.235 L 269.729 44.235 C 269.431 45.983 269.272 47.781 269.272 49.619 C 269.272 51.348 269.411 53.046 269.679 54.695 L 271.844 54.695 C 272.291 53.086 272.53 51.377 272.53 49.619 C 272.52 47.742 272.252 45.934 271.755 44.235 Z " fill="rgb(120,33,46)"/><path d=" M 330.056 12.834 L 323.063 12.834 L 323.063 0 L 309.861 0 L 309.861 12.834 L 318.394 12.834 L 318.394 23.901 C 313.437 20.334 307.338 18.238 300.652 18.238 C 291.493 18.238 283.258 22.162 277.517 28.411 C 280.666 31.967 283.02 36.278 284.311 41.046 C 287.381 35.245 293.48 31.301 300.503 31.301 C 310.616 31.301 318.394 39.497 318.394 49.619 L 318.394 49.719 C 318.344 59.791 310.586 67.937 300.503 67.937 C 293.48 67.937 287.381 63.983 284.311 58.192 L 284.311 58.192 C 283.725 57.089 283.248 55.927 282.901 54.705 L 269.679 54.705 C 269.878 55.907 270.136 57.089 270.464 58.242 C 270.811 59.474 271.238 60.666 271.725 61.828 L 283.08 61.828 C 281.729 65.156 279.841 68.195 277.507 70.828 C 283.238 77.086 291.484 81 300.642 81 C 307.328 81 313.427 78.904 318.384 75.338 C 320.083 74.116 321.652 72.725 323.063 71.175 L 323.063 67.848 L 329.222 67.848 L 331.298 65.285 L 331.298 14.364 L 330.056 12.834 Z  M 318.384 75.328 L 318.384 81 L 323.063 81 L 323.063 71.175 C 321.652 72.715 320.083 74.106 318.384 75.328 Z  M 270.464 40.997 C 270.166 42.05 269.917 43.132 269.729 44.235 L 271.755 44.235 C 271.417 43.103 270.99 42.02 270.464 40.997 Z " fill="rgb(137,139,142)"/><path d=" M 284.997 44.235 C 284.818 43.152 284.589 42.089 284.301 41.046 C 283.765 42.06 283.318 43.123 282.98 44.235 C 282.454 45.934 282.176 47.742 282.176 49.619 C 282.176 51.377 282.424 53.086 282.891 54.695 L 285.037 54.695 C 285.295 53.036 285.424 51.348 285.424 49.619 C 285.434 47.781 285.285 45.983 284.997 44.235 Z  M 254.778 18.228 C 239.282 18.228 226.407 29.464 223.854 44.225 L 237.116 44.225 C 239.411 36.735 246.384 31.291 254.629 31.291 C 261.633 31.291 267.513 35.215 270.474 40.987 C 271.825 36.238 274.268 31.947 277.527 28.401 C 271.964 22.152 263.927 18.228 254.778 18.228 Z  M 268.05 61.818 C 264.811 65.573 260.053 67.927 254.629 67.927 C 246.275 67.927 239.232 62.334 237.027 54.695 L 269.679 54.695 C 269.411 53.036 269.272 51.348 269.272 49.619 C 269.272 47.781 269.431 45.983 269.729 44.235 L 223.854 44.235 C 223.556 45.983 223.397 47.781 223.397 49.619 C 223.397 51.348 223.537 53.046 223.805 54.695 L 223.805 54.695 C 226.229 69.606 239.172 80.99 254.778 80.99 C 263.937 80.99 271.974 77.066 277.517 70.818 C 275.103 68.195 273.136 65.156 271.735 61.818 L 268.05 61.818 Z " fill="rgb(182,38,104)"/></g><g><path d=" M 206.729 70.917 L 206.897 70.917 L 206.897 20.007 L 212.977 20.007 L 212.977 79.788 L 205.378 79.788 L 170.589 28.361 L 170.421 28.361 L 170.421 79.788 L 164.341 79.788 L 164.341 20.007 L 171.94 20.007 L 206.729 70.917 Z " fill="rgb(29,157,217)"/><path d=" M 122.738 74.384 L 154.745 74.384 L 154.745 79.788 L 116.669 79.788 L 116.669 20.007 L 153.732 20.007 L 153.732 25.411 L 122.738 25.411 L 122.738 45.934 L 151.705 45.934 L 151.705 51.338 L 122.738 51.338 L 122.738 74.384 Z " fill="rgb(29,157,217)"/><path d=" M 71.957 20.007 L 88.844 20.007 C 91.884 20.007 94.646 20.334 97.119 20.98 C 99.593 21.626 101.719 22.609 103.497 23.94 C 105.275 25.262 106.636 26.921 107.589 28.927 C 108.543 30.924 109.03 33.278 109.03 35.98 C 109.03 38.682 108.533 41.036 107.55 43.033 C 106.566 45.03 105.186 46.689 103.407 48.02 C 101.639 49.341 99.493 50.344 96.99 51.02 C 94.487 51.695 91.715 52.033 88.676 52.033 L 78.037 52.033 L 78.037 79.808 L 71.957 79.808 L 71.957 20.007 L 71.957 20.007 Z  M 78.037 46.858 L 88.338 46.858 C 93.126 46.858 96.752 45.924 99.225 44.066 C 101.699 42.209 102.94 39.507 102.94 35.96 C 102.94 32.245 101.659 29.533 99.096 27.815 C 96.533 26.096 92.947 25.242 88.328 25.242 L 78.037 25.242 L 78.037 46.858 Z " fill="rgb(29,157,217)"/><path d=" M 62.56 49.252 C 62.56 53.762 61.785 57.904 60.225 61.689 C 58.666 65.474 56.51 68.742 53.758 71.493 C 51.007 74.245 47.748 76.401 43.993 77.96 C 40.238 79.52 36.166 80.295 31.765 80.295 C 27.374 80.295 23.291 79.52 19.537 77.96 C 15.782 76.401 12.523 74.245 9.772 71.493 C 7.02 68.742 4.864 65.474 3.305 61.689 C 1.755 57.904 0.98 53.762 0.98 49.252 C 0.98 44.742 1.755 40.599 3.315 36.815 C 4.874 33.03 7.03 29.762 9.782 27.01 C 12.533 24.258 15.791 22.103 19.546 20.543 C 23.301 18.983 27.374 18.209 31.775 18.209 C 36.166 18.209 40.248 18.983 44.003 20.543 C 47.758 22.103 51.017 24.258 53.768 27.01 C 56.52 29.762 58.676 33.03 60.235 36.815 C 61.785 40.609 62.56 44.752 62.56 49.252 Z  M 56.222 49.291 C 56.222 45.844 55.666 42.576 54.553 39.457 C 53.44 36.348 51.831 33.616 49.715 31.252 C 47.599 28.887 45.027 27.02 41.997 25.629 C 38.967 24.238 35.56 23.543 31.775 23.543 C 27.99 23.543 24.583 24.238 21.553 25.629 C 18.523 27.02 15.95 28.897 13.835 31.252 C 11.719 33.616 10.109 36.348 8.997 39.457 C 7.884 42.566 7.328 45.844 7.328 49.291 C 7.328 52.738 7.884 56.017 8.997 59.126 C 10.109 62.235 11.719 64.957 13.835 67.291 C 15.95 69.626 18.523 71.483 21.553 72.874 C 24.583 74.265 27.99 74.96 31.775 74.96 C 35.56 74.96 38.967 74.265 41.997 72.874 C 45.027 71.483 47.599 69.626 49.715 67.291 C 51.831 64.957 53.44 62.235 54.553 59.126 C 55.666 56.017 56.222 52.738 56.222 49.291 Z " fill="rgb(29,157,217)"/></g><path d=" M 404.282 6.477 C 404.282 5.344 404.56 4.291 405.126 3.308 C 405.692 2.325 406.467 1.54 407.45 0.974 C 408.434 0.407 409.497 0.119 410.639 0.119 C 411.772 0.119 412.825 0.397 413.808 0.964 C 414.791 1.53 415.576 2.305 416.142 3.288 C 416.709 4.272 416.997 5.334 416.997 6.477 C 416.997 7.589 416.719 8.632 416.172 9.606 C 415.626 10.579 414.861 11.364 413.868 11.95 C 412.884 12.536 411.801 12.834 410.629 12.834 C 409.457 12.834 408.384 12.546 407.401 11.96 C 406.417 11.374 405.642 10.599 405.096 9.616 C 404.56 8.642 404.282 7.599 404.282 6.477 Z  M 405.176 6.477 C 405.176 7.45 405.424 8.364 405.911 9.219 C 406.397 10.063 407.073 10.738 407.917 11.225 C 408.762 11.712 409.676 11.96 410.649 11.96 C 411.633 11.96 412.537 11.712 413.381 11.225 C 414.225 10.738 414.891 10.073 415.378 9.228 C 415.874 8.394 416.123 7.48 416.123 6.487 C 416.123 5.503 415.874 4.599 415.388 3.755 C 414.901 2.911 414.235 2.245 413.391 1.758 C 412.556 1.262 411.642 1.013 410.649 1.013 C 409.666 1.013 408.762 1.262 407.917 1.748 C 407.073 2.235 406.407 2.901 405.921 3.745 C 405.434 4.589 405.176 5.483 405.176 6.477 Z  M 413.232 4.937 C 413.232 5.384 413.113 5.791 412.874 6.139 C 412.636 6.487 412.298 6.745 411.861 6.914 L 413.878 10.252 L 412.457 10.252 L 410.709 7.252 L 409.566 7.252 L 409.566 10.252 L 408.315 10.252 L 408.315 2.712 L 410.52 2.712 C 411.454 2.712 412.139 2.891 412.576 3.258 C 413.013 3.636 413.232 4.192 413.232 4.937 Z  M 409.556 6.219 L 410.47 6.219 C 410.917 6.219 411.285 6.099 411.553 5.871 C 411.831 5.632 411.96 5.334 411.96 4.977 C 411.96 4.55 411.841 4.252 411.593 4.063 C 411.354 3.884 410.967 3.785 410.44 3.785 L 409.546 3.785 L 409.546 6.219 L 409.556 6.219 Z " fill="rgb(29,157,217)"/></g></svg>