<svg id="Group_103" data-name="Group 103" xmlns="http://www.w3.org/2000/svg" width="31.478" height="31.478" viewBox="0 0 31.478 31.478">
  <g id="Path_19" data-name="Path 19" transform="translate(0 0)" fill="#074ce1">
    <path d="M 15.73891448974609 30.82783508300781 C 11.70852470397949 30.82783508300781 7.919364452362061 29.25831413269043 5.06944465637207 26.40839385986328 C 2.219524383544922 23.55846405029297 0.650004506111145 19.7693042755127 0.650004506111145 15.73891448974609 C 0.650004506111145 11.70852470397949 2.219524383544922 7.919364452362061 5.06944465637207 5.06944465637207 C 7.919364452362061 2.219524383544922 11.70852470397949 0.650004506111145 15.73891448974609 0.650004506111145 C 19.7693042755127 0.650004506111145 23.55846405029297 2.219524383544922 26.40839385986328 5.06944465637207 C 29.25831413269043 7.919364452362061 30.82783508300781 11.70852470397949 30.82783508300781 15.73891448974609 C 30.82783508300781 19.7693042755127 29.25831413269043 23.55846405029297 26.40839385986328 26.40839385986328 C 23.55846405029297 29.25831413269043 19.7693042755127 30.82783508300781 15.73891448974609 30.82783508300781 Z" stroke="none"/>
    <path d="M 15.73891448974609 1.299995422363281 C 11.88214492797852 1.299995422363281 8.256214141845703 2.801904678344727 5.529054641723633 5.529054641723633 C 2.801904678344727 8.256214141845703 1.299995422363281 11.88214492797852 1.299995422363281 15.73891448974609 C 1.299995422363281 19.59568405151367 2.801904678344727 23.22161483764648 5.529054641723633 25.94876480102539 C 8.256214141845703 28.6759147644043 11.88214492797852 30.17782402038574 15.73891448974609 30.17782402038574 C 19.59568405151367 30.17782402038574 23.22161483764648 28.6759147644043 25.94876480102539 25.94876480102539 C 28.6759147644043 23.22161483764648 30.17782402038574 19.59568405151367 30.17782402038574 15.73891448974609 C 30.17782402038574 11.88214492797852 28.6759147644043 8.256214141845703 25.94876480102539 5.529054641723633 C 23.22161483764648 2.801904678344727 19.59568405151367 1.299995422363281 15.73891448974609 1.299995422363281 M 15.73891448974609 -5.7220458984375e-06 C 24.4312744140625 -5.7220458984375e-06 31.47782516479492 7.046554565429688 31.47782516479492 15.73891448974609 C 31.47782516479492 24.4312744140625 24.4312744140625 31.47782516479492 15.73891448974609 31.47782516479492 C 7.046554565429688 31.47782516479492 -5.7220458984375e-06 24.4312744140625 -5.7220458984375e-06 15.73891448974609 C -5.7220458984375e-06 7.046554565429688 7.046554565429688 -5.7220458984375e-06 15.73891448974609 -5.7220458984375e-06 Z" stroke="none" fill="#074ce1"/>
  </g>
  <g id="Polygon_1" data-name="Polygon 1" transform="translate(21.1 11.239) rotate(90)" fill="#fff">
    <path d="M 7.717613697052002 7.25 L 1.282386302947998 7.25 L 4.5 1.529797792434692 L 7.717613697052002 7.25 Z" stroke="none"/>
    <path d="M 4.5 3.059585571289063 L 2.564766883850098 6.5 L 6.435233116149902 6.5 L 4.5 3.059585571289063 M 4.5 0 L 9 8 L 0 8 L 4.5 0 Z" stroke="none" fill="#fff"/>
  </g>
</svg>
